<svg width="24" height="24" viewBox="0 0 24 24" fill="none" xmlns="http://www.w3.org/2000/svg">
<path fill-rule="evenodd" clip-rule="evenodd" d="M20.5545 2H3.50909C2.69091 2 2 2.64545 2 3.43636V20.5636C2 21.3545 2.45455 22 3.27273 22H20.3091C21.1273 22 22 21.3545 22 20.5636V3.43636C22 2.64545 21.3636 2 20.5545 2ZM9.61818 9.61818H12.3091V10.9909H12.3364C12.7455 10.2545 13.9636 9.5 15.4545 9.5C18.3273 9.5 19.1364 11.0273 19.1364 13.8545V19.1364H16.2818V14.3727C16.2818 13.1091 15.7727 11.9909 14.5909 11.9909C13.1545 11.9909 12.4727 12.9636 12.4727 14.5636V19.1364H9.61818V9.61818ZM4.85455 19.1455H7.70909V9.61818H4.85455V19.1455ZM8.07273 6.28182C8.07273 7.27273 7.27273 8.06364 6.29091 8.06364C5.30909 8.06364 4.50909 7.26364 4.50909 6.28182C4.50909 5.3 5.30909 4.5 6.29091 4.5C7.27273 4.5 8.07273 5.3 8.07273 6.28182Z" fill="#1A1A1A"/>
</svg>
