<svg width="24" height="24" viewBox="0 0 24 24" fill="none" xmlns="http://www.w3.org/2000/svg">
<path fill-rule="evenodd" clip-rule="evenodd" d="M23.9869 14.6691C23.8888 16.4909 22.3837 17.92 20.5841 17.8873H12.4043C12.0335 17.8873 11.7281 17.5709 11.7281 17.2V8.25455C11.7172 7.93818 11.8917 7.65455 12.1753 7.52364C12.1862 7.53455 12.9387 7 14.5202 7C15.4908 7 16.4397 7.26182 17.2686 7.76364C18.5773 8.54909 19.5044 9.85818 19.8316 11.3636C20.1152 11.2873 20.4096 11.2436 20.7041 11.2436C21.5875 11.2436 22.4491 11.6036 23.0708 12.2473C23.6924 12.8909 24.0305 13.7636 23.9978 14.6691H23.9869ZM10.7138 8.82182C10.9647 11.8545 11.1392 14.6145 10.7138 17.6473C10.7029 17.7782 10.583 17.8873 10.4521 17.8873C10.3212 17.8873 10.2012 17.7782 10.1903 17.6473C9.7977 14.6473 9.96129 11.8327 10.1903 8.82182C10.1794 8.72364 10.223 8.61455 10.3103 8.56C10.3975 8.50545 10.5066 8.50545 10.5939 8.56C10.6811 8.61455 10.7247 8.71273 10.7138 8.82182ZM9.05606 17.6473C9.03425 17.7891 8.91428 17.8873 8.7834 17.8873C8.65252 17.8873 8.53255 17.7891 8.51074 17.6473C8.21627 15.0618 8.21627 12.4545 8.51074 9.86909C8.52165 9.72727 8.64162 9.61818 8.7834 9.61818C8.92518 9.61818 9.04515 9.72727 9.05606 9.86909C9.38325 12.4545 9.38325 15.0727 9.05606 17.6473ZM7.39829 9.59636C7.67095 12.3782 7.79092 14.8655 7.39829 17.6364C7.39829 17.7891 7.27832 17.9091 7.13653 17.9091C6.99475 17.9091 6.87478 17.7891 6.87478 17.6364C6.49306 14.8982 6.62393 12.3345 6.87478 9.59636C6.88569 9.45455 7.00566 9.35636 7.13653 9.35636C7.26741 9.35636 7.38738 9.46545 7.39829 9.59636ZM5.74051 17.6473C5.72961 17.7891 5.60964 17.8982 5.46785 17.8982C5.32607 17.8982 5.21701 17.7891 5.19519 17.6473C4.88981 15.2364 4.88981 12.7927 5.19519 10.3818C5.19519 10.2291 5.31516 10.0982 5.46785 10.0982C5.62054 10.0982 5.74051 10.2182 5.74051 10.3818C6.06771 12.7927 6.0568 15.2364 5.74051 17.6473ZM4.08274 12.1927C4.49718 14.08 4.31178 15.7382 4.07184 17.6582C4.05002 17.7891 3.94096 17.8764 3.81008 17.8764C3.6792 17.8764 3.57014 17.7782 3.55923 17.6582C3.3302 15.76 3.14479 14.0582 3.54833 12.1927C3.54833 12.04 3.6683 11.92 3.82099 11.92C3.97368 11.92 4.09365 12.04 4.09365 12.1927H4.08274ZM2.42497 11.9091C2.80669 13.84 2.68672 15.4764 2.42497 17.4073C2.39225 17.6909 1.91237 17.6909 1.87965 17.4073C1.63971 15.4982 1.51974 13.8182 1.87965 11.9091C1.89056 11.7673 2.02143 11.6582 2.16322 11.6582C2.305 11.6582 2.42497 11.7673 2.44678 11.9091H2.42497ZM0.75629 12.8473C1.15983 14.1236 1.01804 15.1709 0.745383 16.48C0.734477 16.6109 0.614506 16.72 0.48363 16.72C0.352753 16.72 0.232782 16.6218 0.221876 16.48C-0.0180648 15.1927 -0.116222 14.1345 0.200063 12.8473C0.21097 12.7055 0.33094 12.5964 0.48363 12.5964C0.636319 12.5964 0.745383 12.7055 0.767196 12.8473H0.75629Z" fill="#1A1A1A"/>
</svg>
