<svg width="24" height="24" viewBox="0 0 24 24" fill="none" xmlns="http://www.w3.org/2000/svg">
<path d="M22.5402 6.40849C22.2903 5.45909 21.5407 4.71955 20.5911 4.45971C18.8719 4 11.995 4 11.995 4C11.995 4 5.11813 4 3.40891 4.45971C2.45934 4.70956 1.71967 5.45909 1.45979 6.40849C1 8.12742 1 12.005 1 12.005C1 12.005 1 15.8826 1.45979 17.5915C1.70968 18.5409 2.45934 19.2804 3.40891 19.5403C5.11813 20 11.995 20 11.995 20C11.995 20 18.8719 20 20.5911 19.5403C21.5407 19.2904 22.2803 18.5409 22.5402 17.5915C23 15.8826 23 12.005 23 12.005C23 12.005 23 8.12742 22.5402 6.40849ZM10.0059 15.5028V8.50718L16.0032 12.005L10.0059 15.5028Z" fill="#1A1A1A"/>
</svg>
