<svg xmlns="http://www.w3.org/2000/svg" xmlns:xlink="http://www.w3.org/1999/xlink" version="1.1" viewBox="0 0 2366 2116" style="background: #ffffff"><defs><style>@import url(https://fonts.googleapis.com/css?family=Open+Sans:400,700);</style></defs><defs joint-selector="defs"></defs><g joint-selector="layers"  transform="matrix(1,0,0,1,0,0)"><g ></g><g ><!--z-index:0--><!--z-index:1--><!--z-index:2--><!--z-index:3--><!--z-index:4--><!--z-index:5--><!--z-index:6--><!--z-index:7--><!--z-index:8--><!--z-index:9--><!--z-index:10--><!--z-index:11--><!--z-index:12--><!--z-index:13--><g   id="j_109"  transform="translate(20,2079.6)"><g id="v-1102"><text  id="v-1103" font-size="22px" xml:space="preserve" y="0.8em" font-weight="normal" text-anchor="start" fill="#aaaaaa" pointer-events="none" display="block" font-family="Open Sans"><tspan dy="0" >Monday 4 August 2025 at 12:53 British Summer Time</tspan></text></g></g><!--z-index:14--><g   id="j_108"  transform="translate(20,2053.2)"><g id="v-1100"><text  id="v-1101" font-size="22px" xml:space="preserve" y="0.8em" font-weight="normal" text-anchor="start" fill="#aaaaaa" pointer-events="none" display="block" font-family="Open Sans"><tspan dy="0" >Context diagram showing how the Research Platform fits within the broader environment.</tspan></text></g></g><!--z-index:15--><g   id="j_107"  transform="translate(20,2009.9999999999998)"><g id="v-1098"><text  id="v-1099" font-size="36px" xml:space="preserve" y="0.8em" font-weight="normal" text-anchor="start" fill="#000000" pointer-events="none" display="block" font-family="Open Sans"><tspan dy="0" >[System Context] ARC Services Portal</tspan></text></g></g><!--z-index:16--><g   id="j_110"  transform="translate(125,900)" style=""><g  id="v-1107" style="opacity: 1;"><rect  x="0" y="160" width="400" height="240" rx="70" id="v-1109" stroke="#073b6f" stroke-width="2" pointer-events="visiblePainted" fill="#08427b" style="fill: rgb(8, 66, 123); stroke: rgb(7, 59, 111);"></rect><circle  cx="200" cy="88.88888888888889" r="88.88888888888889" id="v-1108" stroke="#073b6f" stroke-width="2" pointer-events="visiblePainted" fill="#08427b" style="fill: rgb(8, 66, 123); stroke: rgb(7, 59, 111);"></circle><line  x1="80" y1="266.6666666666667" x2="80" y2="400" id="v-1115" stroke="#073b6f" stroke-width="2" style="stroke: rgb(7, 59, 111);"></line><line  x1="320" y1="266.6666666666667" x2="320" y2="400" id="v-1116" stroke="#073b6f" stroke-width="2" style="stroke: rgb(7, 59, 111);"></line><text  id="v-1110" font-size="34" xml:space="preserve" y="0.8em" font-weight="bold" text-anchor="middle" pointer-events="visible" font-family="Open Sans" fill="#ffffff" transform="matrix(1,0,0,1,200,218.1)" style="fill: rgb(255, 255, 255);"><tspan dy="0" >Researcher</tspan></text><text  id="v-1111" font-size="17" xml:space="preserve" y="0.8em" text-anchor="middle" font-family="Open Sans" fill="#ffffff" transform="matrix(1,0,0,1,200,258.9)" style="fill: rgb(255, 255, 255);"><tspan dy="0" >[Person]</tspan></text><text  id="v-1112" font-size="24" xml:space="preserve" y="0.8em" text-anchor="middle" font-family="Open Sans" fill="#ffffff" transform="matrix(1,0,0,1,200,289.3)" style="fill: rgb(255, 255, 255);"><tspan dy="0" >Uses the platform to manage</tspan><tspan dy="1.2em" x="0" >their research profile and data.</tspan></text><g  id="v-1113" font-weight="normal" text-anchor="middle" color="#ffffff" transform="matrix(1,0,0,1,197.5,368)" display="none" style="fill: rgb(255, 255, 255);"><g ></g><g ></g><g ></g><g ></g></g><image  id="v-1114"></image></g></g><!--z-index:17--><g   id="j_111"  transform="translate(245,1390)" style=""><g  id="v-1120" style="opacity: 1;"><rect  x="0" y="160" width="400" height="240" rx="70" id="v-1122" stroke="#073b6f" stroke-width="2" pointer-events="visiblePainted" fill="#08427b" style="fill: rgb(8, 66, 123); stroke: rgb(7, 59, 111);"></rect><circle  cx="200" cy="88.88888888888889" r="88.88888888888889" id="v-1121" stroke="#073b6f" stroke-width="2" pointer-events="visiblePainted" fill="#08427b" style="fill: rgb(8, 66, 123); stroke: rgb(7, 59, 111);"></circle><line  x1="80" y1="266.6666666666667" x2="80" y2="400" id="v-1128" stroke="#073b6f" stroke-width="2" style="stroke: rgb(7, 59, 111);"></line><line  x1="320" y1="266.6666666666667" x2="320" y2="400" id="v-1129" stroke="#073b6f" stroke-width="2" style="stroke: rgb(7, 59, 111);"></line><text  id="v-1123" font-size="34" xml:space="preserve" y="0.8em" font-weight="bold" text-anchor="middle" pointer-events="visible" font-family="Open Sans" fill="#ffffff" transform="matrix(1,0,0,1,200,203.7)" style="fill: rgb(255, 255, 255);"><tspan dy="0" >Admin</tspan></text><text  id="v-1124" font-size="17" xml:space="preserve" y="0.8em" text-anchor="middle" font-family="Open Sans" fill="#ffffff" transform="matrix(1,0,0,1,200,244.5)" style="fill: rgb(255, 255, 255);"><tspan dy="0" >[Person]</tspan></text><text  id="v-1125" font-size="24" xml:space="preserve" y="0.8em" text-anchor="middle" font-family="Open Sans" fill="#ffffff" transform="matrix(1,0,0,1,200,274.9)" style="fill: rgb(255, 255, 255);"><tspan dy="0" >Portal user with elevated</tspan><tspan dy="1.2em" x="0" >permissions to edit data or</tspan><tspan dy="1.2em" x="0" >review submissions.</tspan></text><g  id="v-1126" font-weight="normal" text-anchor="middle" color="#ffffff" transform="matrix(1,0,0,1,197.5,368)" display="none" style="fill: rgb(255, 255, 255);"><g ></g><g ></g><g ></g><g ></g></g><image  id="v-1127"></image></g></g><!--z-index:18--><g   id="j_112"  transform="translate(1660,1370)" style=""><g  id="v-1133" style="opacity: 1;"><rect  id="v-1134" rx="1" ry="1" stroke="#8a8a8a" stroke-width="2" pointer-events="visiblePainted" fill="#999999" width="450" height="300" style="fill: rgb(153, 153, 153); stroke: rgb(138, 138, 138);"></rect><text  id="v-1135" font-size="34" xml:space="preserve" y="0.8em" font-weight="bold" text-anchor="middle" pointer-events="visible" font-family="Open Sans" fill="#ffffff" transform="matrix(1,0,0,1,225,102.5)" style="fill: rgb(255, 255, 255);"><tspan dy="0" >Microsoft Entra</tspan></text><text  id="v-1136" font-size="17" xml:space="preserve" y="0.8em" text-anchor="middle" font-family="Open Sans" fill="#ffffff" transform="matrix(1,0,0,1,225,143.3)" style="fill: rgb(255, 255, 255);"><tspan dy="0" >[Software System]</tspan></text><text  id="v-1137" font-size="24" xml:space="preserve" y="0.8em" text-anchor="middle" font-family="Open Sans" fill="#ffffff" transform="matrix(1,0,0,1,225,173.7)" style="fill: rgb(255, 255, 255);"><tspan dy="0" >Identity provider (SSO)</tspan></text><g  id="v-1138" color="#ffffff" transform="matrix(1,0,0,1,222.5,268)" display="none" style="fill: rgb(255, 255, 255);"><g ></g><g ></g><g ></g><g ></g></g><image  id="v-1139"></image></g></g><!--z-index:19--><g   id="j_113"  transform="translate(215,420)" style=""><g  id="v-1143" style="opacity: 1;"><rect  id="v-1144" rx="1" ry="1" stroke="#8a8a8a" stroke-width="2" pointer-events="visiblePainted" fill="#999999" width="450" height="300" style="fill: rgb(153, 153, 153); stroke: rgb(138, 138, 138);"></rect><text  id="v-1145" font-size="34" xml:space="preserve" y="0.8em" font-weight="bold" text-anchor="middle" pointer-events="visible" font-family="Open Sans" fill="#ffffff" transform="matrix(1,0,0,1,225,88.1)" style="fill: rgb(255, 255, 255);"><tspan dy="0" >TRE</tspan></text><text  id="v-1146" font-size="17" xml:space="preserve" y="0.8em" text-anchor="middle" font-family="Open Sans" fill="#ffffff" transform="matrix(1,0,0,1,225,128.9)" style="fill: rgb(255, 255, 255);"><tspan dy="0" >[Software System]</tspan></text><text  id="v-1147" font-size="24" xml:space="preserve" y="0.8em" text-anchor="middle" font-family="Open Sans" fill="#ffffff" transform="matrix(1,0,0,1,225,159.3)" style="fill: rgb(255, 255, 255);"><tspan dy="0" >Secure processing environment for</tspan><tspan dy="1.2em" x="0" >sensitive research data</tspan></text><g  id="v-1148" color="#ffffff" transform="matrix(1,0,0,1,222.5,268)" display="none" style="fill: rgb(255, 255, 255);"><g ></g><g ></g><g ></g><g ></g></g><image  id="v-1149"></image></g></g><!--z-index:20--><g   id="j_114"  transform="translate(965,1560)" style=""><g  id="v-1156" style="opacity: 1;"><rect  id="v-1157" rx="1" ry="1" stroke="#8a8a8a" stroke-width="2" pointer-events="visiblePainted" fill="#999999" width="450" height="300" style="fill: rgb(153, 153, 153); stroke: rgb(138, 138, 138);"></rect><text  id="v-1158" font-size="34" xml:space="preserve" y="0.8em" font-weight="bold" text-anchor="middle" pointer-events="visible" font-family="Open Sans" fill="#ffffff" transform="matrix(1,0,0,1,225,82.1)" style="fill: rgb(255, 255, 255);"><tspan dy="0" >GitHub Container</tspan><tspan dy="1.2em" x="0" >Registry</tspan></text><text  id="v-1159" font-size="17" xml:space="preserve" y="0.8em" text-anchor="middle" font-family="Open Sans" fill="#ffffff" transform="matrix(1,0,0,1,225,163.7)" style="fill: rgb(255, 255, 255);"><tspan dy="0" >[Software System]</tspan></text><text  id="v-1160" font-size="24" xml:space="preserve" y="0.8em" text-anchor="middle" font-family="Open Sans" fill="#ffffff" transform="matrix(1,0,0,1,225,194.1)" style="fill: rgb(255, 255, 255);"><tspan dy="0" >Stores container images</tspan></text><g  id="v-1161" color="#ffffff" transform="matrix(1,0,0,1,222.5,268)" display="none" style="fill: rgb(255, 255, 255);"><g ></g><g ></g><g ></g><g ></g></g><image  id="v-1162"></image></g></g><!--z-index:21--><g   id="j_115"  transform="translate(958,958)" style=""><g  id="v-1169" style="opacity: 1;"><rect  id="v-1170" rx="1" ry="1" stroke="#0f5eaa" stroke-width="2" pointer-events="visiblePainted" fill="#1168bd" width="450" height="300" style="fill: rgb(17, 104, 189); stroke: rgb(15, 94, 170);"></rect><text  id="v-1171" font-size="34" xml:space="preserve" y="0.8em" font-weight="bold" text-anchor="middle" pointer-events="visible" font-family="Open Sans" fill="#ffffff" transform="matrix(1,0,0,1,225,73.7)" style="fill: rgb(255, 255, 255);"><tspan dy="0" >ARC Services Portal</tspan></text><text  id="v-1172" font-size="17" xml:space="preserve" y="0.8em" text-anchor="middle" font-family="Open Sans" fill="#ffffff" transform="matrix(1,0,0,1,225,114.5)" style="fill: rgb(255, 255, 255);"><tspan dy="0" >[Software System]</tspan></text><text  id="v-1173" font-size="24" xml:space="preserve" y="0.8em" text-anchor="middle" font-family="Open Sans" fill="#ffffff" transform="matrix(1,0,0,1,225,144.9)" style="fill: rgb(255, 255, 255);"><tspan dy="0" >Enables management of Studies,</tspan><tspan dy="1.2em" x="0" >Projects, user training and</tspan><tspan dy="1.2em" x="0" >information governance</tspan></text><g  id="v-1174" color="#ffffff" transform="matrix(1,0,0,1,210,268)" display="none" style="fill: rgb(255, 255, 255);"><g  transform="translate(5 0)"><svg xmlns="http://www.w3.org/2000/svg" width="20" height="20" fill="currentColor" viewBox="0 0 16 16"><path fill-rule="evenodd" d="M6.5 12a5.5 5.5 0 1 0 0-11 5.5 5.5 0 0 0 0 11zM13 6.5a6.5 6.5 0 1 1-13 0 6.5 6.5 0 0 1 13 0z"></path><path d="M10.344 11.742c.03.04.062.078.098.115l3.85 3.85a1 1 0 0 0 1.415-1.414l-3.85-3.85a1.007 1.007 0 0 0-.115-.1 6.538 6.538 0 0 1-1.398 1.4z"></path><path fill-rule="evenodd" d="M6.5 3a.5.5 0 0 1 .5.5V6h2.5a.5.5 0 0 1 0 1H7v2.5a.5.5 0 0 1-1 0V7H3.5a.5.5 0 0 1 0-1H6V3.5a.5.5 0 0 1 .5-.5z"></path></svg></g><g ></g><g ></g><g ></g></g><image  id="v-1175"></image></g></g><!--z-index:22--><g   id="j_116" ><path  stroke="#707070" d="M 1185 1258 L 1188 1560" id="v-1188" stroke-width="2" stroke-dasharray="30 30" fill="none" style="opacity: 1;"></path><path  fill="black" stroke="black" d="M 0 0 0 0" transform="matrix(0.011654794325156287,0.9999320805780951,-0.9999320805780951,0.011654794325156287,1184.739990234375,1258)"></path><path  fill="#707070" stroke="#707070" d="M 20 0 L 0 10 L 20 20 z" id="v-1190" transform="matrix(-0.01165479432515641,-0.9999320805780951,0.9999320805780951,-0.01165479432515641,1178.260659754658,1560.1166011709079)" style="opacity: 1;"></path><path  d="M 1185 1258 L 1188 1560" id="v-1189" fill="none" style="cursor: default;"></path><g ><g id="v-1182"  label-idx="0" cursor="move" transform="matrix(1,0,0,1,1186.5,1409)" style="cursor: default; opacity: 1;"><rect joint-selector="rect" id="v-1185" fill="#ffffff" rx="3" ry="3" pointer-events="none" width="193.9044952392578" height="61.76592445373535" transform="matrix(1,0,0,1,-96.4,-30.9)"></rect><text joint-selector="text" id="v-1184" font-size="24px" xml:space="preserve" y="0.8em" fill="#707070" text-anchor="middle" pointer-events="none" font-family="Open Sans" font-weight="normal" transform="matrix(1,0,0,1,0,-25.4)"><tspan dy="0" >Pushes container</tspan><tspan dy="1.2em" x="0" >images</tspan></text></g><g id="v-1183"  label-idx="1" cursor="move" transform="matrix(1,0,0,1,1176.5,1449.800048828125)" style="cursor: default; opacity: 1;"><rect joint-selector="rect" id="v-1187" fill="#ffffff" rx="3" ry="3"  width="0" height="0" transform="matrix(1,0,0,1,0,0)" display="none"></rect><text joint-selector="text" id="v-1186" fill="#000000" font-size="14" text-anchor="middle" pointer-events="none"></text></g></g><g  display="none"></g><g  id="v-1192" display="none"><g  id="v-1180"><path  end="source" d="M 26 0 L 0 13 L 26 26 z"></path></g><g  id="v-1181"><path  end="target" d="M 26 0 L 0 13 L 26 26 z"></path></g></g><g  id="v-1191" display="none"><g  id="v-1179" transform="translate(1185.3973313895538, 1297.9980265484046) "><g  event="remove"><circle r="11"></circle><path transform="scale(.8) translate(-16, -16)" d="M24.778,21.419 19.276,15.917 24.777,10.415 21.949,7.585 16.447,13.087 10.945,7.585 8.117,10.415 13.618,15.917 8.116,21.419 10.946,24.248 16.447,18.746 21.948,24.248z"></path><title>Remove link.</title></g><g  event="link:options"><circle r="11" transform="translate(25)"></circle><path fill="white" transform="scale(.55) translate(29, -16)" d="M31.229,17.736c0.064-0.571,0.104-1.148,0.104-1.736s-0.04-1.166-0.104-1.737l-4.377-1.557c-0.218-0.716-0.504-1.401-0.851-2.05l1.993-4.192c-0.725-0.91-1.549-1.734-2.458-2.459l-4.193,1.994c-0.647-0.347-1.334-0.632-2.049-0.849l-1.558-4.378C17.165,0.708,16.588,0.667,16,0.667s-1.166,0.041-1.737,0.105L12.707,5.15c-0.716,0.217-1.401,0.502-2.05,0.849L6.464,4.005C5.554,4.73,4.73,5.554,4.005,6.464l1.994,4.192c-0.347,0.648-0.632,1.334-0.849,2.05l-4.378,1.557C0.708,14.834,0.667,15.412,0.667,16s0.041,1.165,0.105,1.736l4.378,1.558c0.217,0.715,0.502,1.401,0.849,2.049l-1.994,4.193c0.725,0.909,1.549,1.733,2.459,2.458l4.192-1.993c0.648,0.347,1.334,0.633,2.05,0.851l1.557,4.377c0.571,0.064,1.148,0.104,1.737,0.104c0.588,0,1.165-0.04,1.736-0.104l1.558-4.377c0.715-0.218,1.399-0.504,2.049-0.851l4.193,1.993c0.909-0.725,1.733-1.549,2.458-2.458l-1.993-4.193c0.347-0.647,0.633-1.334,0.851-2.049L31.229,17.736zM16,20.871c-2.69,0-4.872-2.182-4.872-4.871c0-2.69,2.182-4.872,4.872-4.872c2.689,0,4.871,2.182,4.871,4.872C20.871,18.689,18.689,20.871,16,20.871z"></path><title>Link options.</title></g></g></g></g><!--z-index:23--><g   id="j_117" ><path  stroke="#707070" d="M 525 1102 L 958 1106" id="v-1205" stroke-width="2" stroke-dasharray="30 30" fill="none" style="opacity: 1;"></path><path  fill="black" stroke="black" d="M 0 0 0 0" transform="matrix(0.9999564760213102,0.009329847964609938,-0.009329847964609938,0.9999564760213102,525,1101.8599853515625)"></path><path  fill="#707070" stroke="#707070" d="M 20 0 L 0 10 L 20 20 z" id="v-1207" transform="matrix(-0.9999564772442343,-0.009329716892854799,0.009329716892854799,-0.9999564772442343,957.906694849608,1115.899502566371)" style="opacity: 1;"></path><path  d="M 525 1102 L 958 1106" id="v-1206" fill="none" style="cursor: default;"></path><g ><g id="v-1199"  label-idx="0" cursor="move" transform="matrix(1,0,0,1,741.5,1104)" style="cursor: default; opacity: 1;"><rect joint-selector="rect" id="v-1202" fill="#ffffff" rx="3" ry="3" pointer-events="none" width="139.96690368652344" height="61.76592445373535" transform="matrix(1,0,0,1,-71.1,-30.9)"></rect><text joint-selector="text" id="v-1201" font-size="24px" xml:space="preserve" y="0.8em" fill="#707070" text-anchor="middle" pointer-events="none" font-family="Open Sans" font-weight="normal" transform="matrix(1,0,0,1,0,-25.4)"><tspan dy="0" >Accesses via</tspan><tspan dy="1.2em" x="0" >browser</tspan></text></g><g id="v-1200"  label-idx="1" cursor="move" transform="matrix(1,0,0,1,731.5,1144.800048828125)" style="cursor: default; opacity: 1;"><rect joint-selector="rect" id="v-1204" fill="#ffffff" rx="3" ry="3"  width="0" height="0" transform="matrix(1,0,0,1,0,0)" display="none"></rect><text joint-selector="text" id="v-1203" fill="#000000" font-size="14" text-anchor="middle" pointer-events="none"></text></g></g><g  display="none"></g><g  id="v-1209" display="none"><g  id="v-1197"><path  end="source" d="M 26 0 L 0 13 L 26 26 z"></path></g><g  id="v-1198"><path  end="target" d="M 26 0 L 0 13 L 26 26 z"></path></g></g><g  id="v-1208" display="none"><g  id="v-1196" transform="translate(564.9982933424347, 1102.3694992456576) "><g  event="remove"><circle r="11"></circle><path transform="scale(.8) translate(-16, -16)" d="M24.778,21.419 19.276,15.917 24.777,10.415 21.949,7.585 16.447,13.087 10.945,7.585 8.117,10.415 13.618,15.917 8.116,21.419 10.946,24.248 16.447,18.746 21.948,24.248z"></path><title>Remove link.</title></g><g  event="link:options"><circle r="11" transform="translate(25)"></circle><path fill="white" transform="scale(.55) translate(29, -16)" d="M31.229,17.736c0.064-0.571,0.104-1.148,0.104-1.736s-0.04-1.166-0.104-1.737l-4.377-1.557c-0.218-0.716-0.504-1.401-0.851-2.05l1.993-4.192c-0.725-0.91-1.549-1.734-2.458-2.459l-4.193,1.994c-0.647-0.347-1.334-0.632-2.049-0.849l-1.558-4.378C17.165,0.708,16.588,0.667,16,0.667s-1.166,0.041-1.737,0.105L12.707,5.15c-0.716,0.217-1.401,0.502-2.05,0.849L6.464,4.005C5.554,4.73,4.73,5.554,4.005,6.464l1.994,4.192c-0.347,0.648-0.632,1.334-0.849,2.05l-4.378,1.557C0.708,14.834,0.667,15.412,0.667,16s0.041,1.165,0.105,1.736l4.378,1.558c0.217,0.715,0.502,1.401,0.849,2.049l-1.994,4.193c0.725,0.909,1.549,1.733,2.459,2.458l4.192-1.993c0.648,0.347,1.334,0.633,2.05,0.851l1.557,4.377c0.571,0.064,1.148,0.104,1.737,0.104c0.588,0,1.165-0.04,1.736-0.104l1.558-4.377c0.715-0.218,1.399-0.504,2.049-0.851l4.193,1.993c0.909-0.725,1.733-1.549,2.458-2.458l-1.993-4.193c0.347-0.647,0.633-1.334,0.851-2.049L31.229,17.736zM16,20.871c-2.69,0-4.872-2.182-4.872-4.871c0-2.69,2.182-4.872,4.872-4.872c2.689,0,4.871,2.182,4.871,4.872C20.871,18.689,18.689,20.871,16,20.871z"></path><title>Link options.</title></g></g></g></g><!--z-index:24--><g   id="j_118" ><path  stroke="#707070" d="M 645 1459 L 958 1255" id="v-1222" stroke-width="2" stroke-dasharray="30 30" fill="none" style="opacity: 1;"></path><path  fill="black" stroke="black" d="M 0 0 0 0" transform="matrix(0.8372436396499312,-0.5468300356287461,0.5468300356287461,0.8372436396499312,645,1459.3800048828125)"></path><path  fill="#707070" stroke="#707070" d="M 20 0 L 0 10 L 20 20 z" id="v-1224" transform="matrix(-0.8372437852795491,0.546829812657258,-0.546829812657258,-0.8372437852795491,963.468299455931,1263.3224746871601)" style="opacity: 1;"></path><path  d="M 645 1459 L 958 1255" id="v-1223" fill="none" style="cursor: default;"></path><g ><g id="v-1216"  label-idx="0" cursor="move" transform="matrix(1,0,0,1,801.5,1357)" style="cursor: default; opacity: 1;"><rect joint-selector="rect" id="v-1219" fill="#ffffff" rx="3" ry="3" pointer-events="none" width="174.09832763671875" height="61.76592445373535" transform="matrix(1,0,0,1,-88.2,-30.9)"></rect><text joint-selector="text" id="v-1218" font-size="24px" xml:space="preserve" y="0.8em" fill="#707070" text-anchor="middle" pointer-events="none" font-family="Open Sans" font-weight="normal" transform="matrix(1,0,0,1,0,-25.4)"><tspan dy="0" >Administers via</tspan><tspan dy="1.2em" x="0" >browser</tspan></text></g><g id="v-1217"  label-idx="1" cursor="move" transform="matrix(1,0,0,1,791.5,1397.800048828125)" style="cursor: default; opacity: 1;"><rect joint-selector="rect" id="v-1221" fill="#ffffff" rx="3" ry="3"  width="0" height="0" transform="matrix(1,0,0,1,0,0)" display="none"></rect><text joint-selector="text" id="v-1220" fill="#000000" font-size="14" text-anchor="middle" pointer-events="none"></text></g></g><g  display="none"></g><g  id="v-1226" display="none"><g  id="v-1214"><path  end="source" d="M 26 0 L 0 13 L 26 26 z"></path></g><g  id="v-1215"><path  end="target" d="M 26 0 L 0 13 L 26 26 z"></path></g></g><g  id="v-1225" display="none"><g  id="v-1213" transform="translate(678.5108121603666, 1437.1590872820611) "><g  event="remove"><circle r="11"></circle><path transform="scale(.8) translate(-16, -16)" d="M24.778,21.419 19.276,15.917 24.777,10.415 21.949,7.585 16.447,13.087 10.945,7.585 8.117,10.415 13.618,15.917 8.116,21.419 10.946,24.248 16.447,18.746 21.948,24.248z"></path><title>Remove link.</title></g><g  event="link:options"><circle r="11" transform="translate(25)"></circle><path fill="white" transform="scale(.55) translate(29, -16)" d="M31.229,17.736c0.064-0.571,0.104-1.148,0.104-1.736s-0.04-1.166-0.104-1.737l-4.377-1.557c-0.218-0.716-0.504-1.401-0.851-2.05l1.993-4.192c-0.725-0.91-1.549-1.734-2.458-2.459l-4.193,1.994c-0.647-0.347-1.334-0.632-2.049-0.849l-1.558-4.378C17.165,0.708,16.588,0.667,16,0.667s-1.166,0.041-1.737,0.105L12.707,5.15c-0.716,0.217-1.401,0.502-2.05,0.849L6.464,4.005C5.554,4.73,4.73,5.554,4.005,6.464l1.994,4.192c-0.347,0.648-0.632,1.334-0.849,2.05l-4.378,1.557C0.708,14.834,0.667,15.412,0.667,16s0.041,1.165,0.105,1.736l4.378,1.558c0.217,0.715,0.502,1.401,0.849,2.049l-1.994,4.193c0.725,0.909,1.549,1.733,2.459,2.458l4.192-1.993c0.648,0.347,1.334,0.633,2.05,0.851l1.557,4.377c0.571,0.064,1.148,0.104,1.737,0.104c0.588,0,1.165-0.04,1.736-0.104l1.558-4.377c0.715-0.218,1.399-0.504,2.049-0.851l4.193,1.993c0.909-0.725,1.733-1.549,2.458-2.458l-1.993-4.193c0.347-0.647,0.633-1.334,0.851-2.049L31.229,17.736zM16,20.871c-2.69,0-4.872-2.182-4.872-4.871c0-2.69,2.182-4.872,4.872-4.872c2.689,0,4.871,2.182,4.871,4.872C20.871,18.689,18.689,20.871,16,20.871z"></path><title>Link options.</title></g></g></g></g><!--z-index:25--><g   id="j_119" ><path  stroke="#707070" d="M 1408 1240 L 1660 1388" id="v-1242" stroke-width="2" stroke-dasharray="30 30" fill="none" style="opacity: 1;"></path><path  fill="black" stroke="black" d="M 0 0 0 0" transform="matrix(0.8624352627204345,0.5061673810275953,-0.5061673810275953,0.8624352627204345,1408,1240.050048828125)"></path><path  fill="#707070" stroke="#707070" d="M 20 0 L 0 10 L 20 20 z" id="v-1244" transform="matrix(-0.8624352795705,-0.5061673523175444,0.5061673523175444,-0.8624352795705,1654.9382896240925,1396.5743319829432)" style="opacity: 1;"></path><path  d="M 1408 1240 L 1660 1388" id="v-1243" fill="none" style="cursor: default;"></path><g ><g id="v-1233"  label-idx="0" cursor="move" transform="matrix(1,0,0,1,1534,1314)" style="cursor: default; opacity: 1;"><rect joint-selector="rect" id="v-1237" fill="#ffffff" rx="3" ry="3" pointer-events="none" width="186.40676879882812" height="61.76592445373535" transform="matrix(1,0,0,1,-92,-30.9)"></rect><text joint-selector="text" id="v-1236" font-size="24px" xml:space="preserve" y="0.8em" fill="#707070" text-anchor="middle" pointer-events="none" font-family="Open Sans" font-weight="normal" transform="matrix(1,0,0,1,0,-25.4)"><tspan dy="0" >Authenticates</tspan><tspan dy="1.2em" x="0" >requests against</tspan></text></g><g id="v-1234"  label-idx="1" cursor="move" transform="matrix(1,0,0,1,1534,1354.800048828125)" style="cursor: default; opacity: 1;"><rect joint-selector="rect" id="v-1239" fill="#ffffff" rx="3" ry="3" pointer-events="none" width="42.96730041503906" height="24.724440574645996" transform="matrix(1,0,0,1,-21.5,-12.3)"></rect><text joint-selector="text" id="v-1238" font-size="17px" xml:space="preserve" y="0.8em" fill="#707070" text-anchor="middle" pointer-events="none" font-family="Open Sans" font-weight="normal" transform="matrix(1,0,0,1,0,-6.7)"><tspan dy="0" >[SSO]</tspan></text></g><g id="v-1235"  label-idx="2" cursor="move" transform="matrix(1,0,0,1,1524,1363.199951171875)" style="cursor: default; opacity: 1;"><rect joint-selector="rect" id="v-1241" fill="#ffffff" rx="3" ry="3"  width="0" height="0" transform="matrix(1,0,0,1,0,0)" display="none"></rect><text joint-selector="text" id="v-1240" fill="#000000" font-size="14" text-anchor="middle" pointer-events="none"></text></g></g><g  display="none"></g><g  id="v-1246" display="none"><g  id="v-1231"><path  end="source" d="M 26 0 L 0 13 L 26 26 z"></path></g><g  id="v-1232"><path  end="target" d="M 26 0 L 0 13 L 26 26 z"></path></g></g><g  id="v-1245" display="none"><g  id="v-1230" transform="translate(1442.4914344197616, 1260.2568741830346) "><g  event="remove"><circle r="11"></circle><path transform="scale(.8) translate(-16, -16)" d="M24.778,21.419 19.276,15.917 24.777,10.415 21.949,7.585 16.447,13.087 10.945,7.585 8.117,10.415 13.618,15.917 8.116,21.419 10.946,24.248 16.447,18.746 21.948,24.248z"></path><title>Remove link.</title></g><g  event="link:options"><circle r="11" transform="translate(25)"></circle><path fill="white" transform="scale(.55) translate(29, -16)" d="M31.229,17.736c0.064-0.571,0.104-1.148,0.104-1.736s-0.04-1.166-0.104-1.737l-4.377-1.557c-0.218-0.716-0.504-1.401-0.851-2.05l1.993-4.192c-0.725-0.91-1.549-1.734-2.458-2.459l-4.193,1.994c-0.647-0.347-1.334-0.632-2.049-0.849l-1.558-4.378C17.165,0.708,16.588,0.667,16,0.667s-1.166,0.041-1.737,0.105L12.707,5.15c-0.716,0.217-1.401,0.502-2.05,0.849L6.464,4.005C5.554,4.73,4.73,5.554,4.005,6.464l1.994,4.192c-0.347,0.648-0.632,1.334-0.849,2.05l-4.378,1.557C0.708,14.834,0.667,15.412,0.667,16s0.041,1.165,0.105,1.736l4.378,1.558c0.217,0.715,0.502,1.401,0.849,2.049l-1.994,4.193c0.725,0.909,1.549,1.733,2.459,2.458l4.192-1.993c0.648,0.347,1.334,0.633,2.05,0.851l1.557,4.377c0.571,0.064,1.148,0.104,1.737,0.104c0.588,0,1.165-0.04,1.736-0.104l1.558-4.377c0.715-0.218,1.399-0.504,2.049-0.851l4.193,1.993c0.909-0.725,1.733-1.549,2.458-2.458l-1.993-4.193c0.347-0.647,0.633-1.334,0.851-2.049L31.229,17.736zM16,20.871c-2.69,0-4.872-2.182-4.872-4.871c0-2.69,2.182-4.872,4.872-4.872c2.689,0,4.871,2.182,4.871,4.872C20.871,18.689,18.689,20.871,16,20.871z"></path><title>Link options.</title></g></g></g></g><!--z-index:26--><g   id="j_120" ><path  stroke="#707070" d="M 647 720 L 976 958" id="v-1259" stroke-width="2" stroke-dasharray="30 30" fill="none" style="opacity: 1;"></path><path  fill="black" stroke="black" d="M 0 0 0 0" transform="matrix(0.8099534240765335,0.5864942035746805,-0.5864942035746805,0.8099534240765335,647.1599731445312,720)"></path><path  fill="#707070" stroke="#707070" d="M 20 0 L 0 10 L 20 20 z" id="v-1261" transform="matrix(-0.8099534631247453,-0.5864941496487682,0.5864941496487682,-0.8099534631247453,969.9750716503851,966.0995469285167)" style="opacity: 1;"></path><path  d="M 647 720 L 976 958" id="v-1260" fill="none" style="cursor: default;"></path><g ><g id="v-1253"  label-idx="0" cursor="move" transform="matrix(1,0,0,1,811.5,839)" style="cursor: default; opacity: 1;"><rect joint-selector="rect" id="v-1256" fill="#ffffff" rx="3" ry="3" pointer-events="none" width="191.61441040039062" height="61.76592445373535" transform="matrix(1,0,0,1,-97.2,-30.9)"></rect><text joint-selector="text" id="v-1255" font-size="24px" xml:space="preserve" y="0.8em" fill="#707070" text-anchor="middle" pointer-events="none" font-family="Open Sans" font-weight="normal" transform="matrix(1,0,0,1,0,-25.4)"><tspan dy="0" >Accesses /tre/api</tspan><tspan dy="1.2em" x="0" >for data lookup</tspan></text></g><g id="v-1254"  label-idx="1" cursor="move" transform="matrix(1,0,0,1,801.5,879.7999877929688)" style="cursor: default; opacity: 1;"><rect joint-selector="rect" id="v-1258" fill="#ffffff" rx="3" ry="3"  width="0" height="0" transform="matrix(1,0,0,1,0,0)" display="none"></rect><text joint-selector="text" id="v-1257" fill="#000000" font-size="14" text-anchor="middle" pointer-events="none"></text></g></g><g  display="none"></g><g  id="v-1263" display="none"><g  id="v-1251"><path  end="source" d="M 26 0 L 0 13 L 26 26 z"></path></g><g  id="v-1252"><path  end="target" d="M 26 0 L 0 13 L 26 26 z"></path></g></g><g  id="v-1262" display="none"><g  id="v-1250" transform="translate(679.4089764315881, 743.444791461149) "><g  event="remove"><circle r="11"></circle><path transform="scale(.8) translate(-16, -16)" d="M24.778,21.419 19.276,15.917 24.777,10.415 21.949,7.585 16.447,13.087 10.945,7.585 8.117,10.415 13.618,15.917 8.116,21.419 10.946,24.248 16.447,18.746 21.948,24.248z"></path><title>Remove link.</title></g><g  event="link:options"><circle r="11" transform="translate(25)"></circle><path fill="white" transform="scale(.55) translate(29, -16)" d="M31.229,17.736c0.064-0.571,0.104-1.148,0.104-1.736s-0.04-1.166-0.104-1.737l-4.377-1.557c-0.218-0.716-0.504-1.401-0.851-2.05l1.993-4.192c-0.725-0.91-1.549-1.734-2.458-2.459l-4.193,1.994c-0.647-0.347-1.334-0.632-2.049-0.849l-1.558-4.378C17.165,0.708,16.588,0.667,16,0.667s-1.166,0.041-1.737,0.105L12.707,5.15c-0.716,0.217-1.401,0.502-2.05,0.849L6.464,4.005C5.554,4.73,4.73,5.554,4.005,6.464l1.994,4.192c-0.347,0.648-0.632,1.334-0.849,2.05l-4.378,1.557C0.708,14.834,0.667,15.412,0.667,16s0.041,1.165,0.105,1.736l4.378,1.558c0.217,0.715,0.502,1.401,0.849,2.049l-1.994,4.193c0.725,0.909,1.549,1.733,2.459,2.458l4.192-1.993c0.648,0.347,1.334,0.633,2.05,0.851l1.557,4.377c0.571,0.064,1.148,0.104,1.737,0.104c0.588,0,1.165-0.04,1.736-0.104l1.558-4.377c0.715-0.218,1.399-0.504,2.049-0.851l4.193,1.993c0.909-0.725,1.733-1.549,2.458-2.458l-1.993-4.193c0.347-0.647,0.633-1.334,0.851-2.049L31.229,17.736zM16,20.871c-2.69,0-4.872-2.182-4.872-4.871c0-2.69,2.182-4.872,4.872-4.872c2.689,0,4.871,2.182,4.871,4.872C20.871,18.689,18.689,20.871,16,20.871z"></path><title>Link options.</title></g></g></g></g><!--z-index:27--><!--z-index:28--><!--z-index:29--><!--z-index:30--><!--z-index:31--><!--z-index:32--><!--z-index:33--><!--z-index:34--><!--z-index:35--><!--z-index:36--><!--z-index:37--><!--z-index:38--><!--z-index:39--><!--z-index:40--><!--z-index:41--><!--z-index:42--><!--z-index:43--><!--z-index:44--><!--z-index:45--><!--z-index:46--><!--z-index:47--><!--z-index:48--><!--z-index:49--><!--z-index:50--><!--z-index:51--><!--z-index:52--><!--z-index:53--><!--z-index:54--><!--z-index:55--><!--z-index:56--><!--z-index:57--><!--z-index:58--><!--z-index:59--><!--z-index:60--><!--z-index:61--><!--z-index:62--><!--z-index:63--><!--z-index:64--><!--z-index:65--><!--z-index:66--><!--z-index:67--><!--z-index:68--><!--z-index:69--><!--z-index:70--><!--z-index:71--><!--z-index:72--><!--z-index:73--><!--z-index:74--><!--z-index:75--></g><g ></g><g ></g><g ></g></g></svg>