<svg xmlns="http://www.w3.org/2000/svg" xmlns:xlink="http://www.w3.org/1999/xlink" version="1.1" viewBox="0 0 1666 1783" style="background: #ffffff"><defs><style>@import url(https://fonts.googleapis.com/css?family=Open+Sans:400,700);</style></defs><defs joint-selector="defs"></defs><g joint-selector="layers"  transform="matrix(1,0,0,1,0,0)"><g ></g><g ><!--z-index:0--><!--z-index:1--><!--z-index:2--><!--z-index:3--><!--z-index:4--><!--z-index:5--><!--z-index:6--><!--z-index:7--><!--z-index:8--><!--z-index:9--><!--z-index:10--><!--z-index:11--><!--z-index:12--><!--z-index:13--><!--z-index:14--><!--z-index:15--><!--z-index:16--><!--z-index:17--><!--z-index:18--><!--z-index:19--><!--z-index:20--><!--z-index:21--><!--z-index:22--><g   id="j_178"  transform="translate(20,1746.6)"><g id="v-1989"><text  id="v-1990" font-size="22px" xml:space="preserve" y="0.8em" font-weight="normal" text-anchor="start" fill="#aaaaaa" pointer-events="none" display="block" font-family="Open Sans"><tspan dy="0" >Monday 4 August 2025 at 13:54 British Summer Time</tspan></text></g></g><!--z-index:23--><g   id="j_177"  transform="translate(20,1720.1999999999998)"><g id="v-1987"><text  id="v-1988" font-size="22px" xml:space="preserve" y="0.8em" font-weight="normal" text-anchor="start" fill="#aaaaaa" pointer-events="none" display="block" font-family="Open Sans"><tspan dy="0" >Component view showing how CI/CD is managed using GitHub Actions and Terraform.</tspan></text></g></g><!--z-index:24--><g   id="j_176"  transform="translate(20,1676.9999999999998)"><g id="v-1985"><text  id="v-1986" font-size="36px" xml:space="preserve" y="0.8em" font-weight="normal" text-anchor="start" fill="#000000" pointer-events="none" display="block" font-family="Open Sans"><tspan dy="0" >[Component] ARC Services Portal - CI/CD Pipeline</tspan></text></g></g><!--z-index:25--><g   id="j_179"  transform="translate(983,1326)" style=""><g  id="v-1997" style="opacity: 1;"><rect  id="v-1998" rx="1" ry="1" stroke="#8a8a8a" stroke-width="2" pointer-events="visiblePainted" fill="#999999" width="450" height="300" style="fill: rgb(153, 153, 153); stroke: rgb(138, 138, 138);"></rect><text  id="v-1999" font-size="34" xml:space="preserve" y="0.8em" font-weight="bold" text-anchor="middle" pointer-events="visible" font-family="Open Sans" fill="#ffffff" transform="matrix(1,0,0,1,225,82.1)" style="fill: rgb(255, 255, 255);"><tspan dy="0" >GitHub Container</tspan><tspan dy="1.2em" x="0" >Registry</tspan></text><text  id="v-2000" font-size="17" xml:space="preserve" y="0.8em" text-anchor="middle" font-family="Open Sans" fill="#ffffff" transform="matrix(1,0,0,1,225,163.7)" style="fill: rgb(255, 255, 255);"><tspan dy="0" >[Software System]</tspan></text><text  id="v-2001" font-size="24" xml:space="preserve" y="0.8em" text-anchor="middle" font-family="Open Sans" fill="#ffffff" transform="matrix(1,0,0,1,225,194.1)" style="fill: rgb(255, 255, 255);"><tspan dy="0" >Stores container images</tspan></text><g  id="v-2002" color="#ffffff" transform="matrix(1,0,0,1,222.5,268)" display="none" style="fill: rgb(255, 255, 255);"><g ></g><g ></g><g ></g><g ></g></g><image  id="v-2003"></image></g></g><!--z-index:26--><g   id="j_182"  transform="translate(193,61)" style=""><g id="v-2022"><rect  id="v-2023" width="1280" height="1117" rx="0" ry="0" fill="#ffffff" stroke="#3c7fc0" stroke-width="1" stroke-dasharray="20,20" pointer-events="none"></rect><text  id="v-2024" font-size="24px" xml:space="preserve" y="1078" font-weight="normal" fill="#3c7fc0" text-anchor="start" pointer-events="visible" font-family="Open Sans" transform="matrix(1,0,0,1,15,0)"><tspan dy="0" >CI/CD Pipeline</tspan></text><text  id="v-2025" font-size="17px" xml:space="preserve" y="1102" font-weight="normal" fill="#3c7fc0" text-anchor="start" pointer-events="visible" font-family="Open Sans" transform="matrix(1,0,0,1,15,0)"><tspan dy="0" >[Container]</tspan></text><image  id="v-2026" pointer-events="visible"></image></g></g><!--z-index:27--><g   id="j_181"  transform="translate(213,693)" style=""><g id="v-2017"><rect  id="v-2018" width="490" height="394" rx="0" ry="0" fill="#ffffff" stroke="#444444" stroke-width="1" stroke-dasharray="5,5" pointer-events="none"></rect><text  id="v-2019" font-size="24px" xml:space="preserve" y="379" font-weight="normal" fill="#444444" text-anchor="start" pointer-events="visible" font-family="Open Sans" transform="matrix(1,0,0,1,15,0)"><tspan dy="0" >Portal App Repository</tspan></text><text  id="v-2020" font-size="17px" xml:space="preserve" display="none" y="379" font-weight="normal" fill="#444444" text-anchor="start" pointer-events="visible" font-family="Open Sans" transform="matrix(1,0,0,1,15,0)"><tspan dy="0" style="fill-opacity: 0; stroke-opacity: 0;" >-</tspan></text><image  id="v-2021" pointer-events="visible"></image></g></g><!--z-index:28--><g   id="j_184"  transform="translate(213,81)" style=""><g id="v-2040"><rect  id="v-2041" width="1240" height="394" rx="0" ry="0" fill="#ffffff" stroke="#444444" stroke-width="1" stroke-dasharray="5,5" pointer-events="none"></rect><text  id="v-2042" font-size="24px" xml:space="preserve" y="379" font-weight="normal" fill="#444444" text-anchor="start" pointer-events="visible" font-family="Open Sans" transform="matrix(1,0,0,1,15,0)"><tspan dy="0" >Infrastructure Repository</tspan></text><text  id="v-2043" font-size="17px" xml:space="preserve" display="none" y="379" font-weight="normal" fill="#444444" text-anchor="start" pointer-events="visible" font-family="Open Sans" transform="matrix(1,0,0,1,15,0)"><tspan dy="0" style="fill-opacity: 0; stroke-opacity: 0;" >-</tspan></text><image  id="v-2044" pointer-events="visible"></image></g></g><!--z-index:29--><g   id="j_180"  transform="translate(233,713)" style=""><g  id="v-2010" style="opacity: 1;"><rect  id="v-2011" rx="1" ry="1" stroke="#78a8d8" stroke-width="2" pointer-events="visiblePainted" fill="#85bbf0" width="450" height="300" style="fill: rgb(133, 187, 240); stroke: rgb(120, 168, 216);"></rect><text  id="v-2012" font-size="34" xml:space="preserve" y="0.8em" font-weight="bold" text-anchor="middle" pointer-events="visible" font-family="Open Sans" fill="#000000" transform="matrix(1,0,0,1,225,82.1)" style="fill: rgb(0, 0, 0);"><tspan dy="0" >GitHub Actions (Portal</tspan><tspan dy="1.2em" x="0" >Repo)</tspan></text><text  id="v-2013" font-size="17" xml:space="preserve" y="0.8em" text-anchor="middle" font-family="Open Sans" fill="#000000" transform="matrix(1,0,0,1,225,163.7)" style="fill: rgb(0, 0, 0);"><tspan dy="0" >[Component: GitHub Actions]</tspan></text><text  id="v-2014" font-size="24" xml:space="preserve" y="0.8em" text-anchor="middle" font-family="Open Sans" fill="#000000" transform="matrix(1,0,0,1,225,194.1)" style="fill: rgb(0, 0, 0);"><tspan dy="0" >Builds &amp; pushes container images</tspan></text><g  id="v-2015" color="#000000" transform="matrix(1,0,0,1,222.5,268)" display="none" style="fill: rgb(0, 0, 0);"><g ></g><g ></g><g ></g><g ></g></g><image  id="v-2016"></image></g></g><!--z-index:30--><g   id="j_183"  transform="translate(233,101)" style=""><g  id="v-2033" style="opacity: 1;"><rect  id="v-2034" rx="1" ry="1" stroke="#78a8d8" stroke-width="2" pointer-events="visiblePainted" fill="#85bbf0" width="450" height="300" style="fill: rgb(133, 187, 240); stroke: rgb(120, 168, 216);"></rect><text  id="v-2035" font-size="34" xml:space="preserve" y="0.8em" font-weight="bold" text-anchor="middle" pointer-events="visible" font-family="Open Sans" fill="#000000" transform="matrix(1,0,0,1,225,82.1)" style="fill: rgb(0, 0, 0);"><tspan dy="0" >GitHub Actions (Infra</tspan><tspan dy="1.2em" x="0" >Repo)</tspan></text><text  id="v-2036" font-size="17" xml:space="preserve" y="0.8em" text-anchor="middle" font-family="Open Sans" fill="#000000" transform="matrix(1,0,0,1,225,163.7)" style="fill: rgb(0, 0, 0);"><tspan dy="0" >[Component: GitHub Actions]</tspan></text><text  id="v-2037" font-size="24" xml:space="preserve" y="0.8em" text-anchor="middle" font-family="Open Sans" fill="#000000" transform="matrix(1,0,0,1,225,194.1)" style="fill: rgb(0, 0, 0);"><tspan dy="0" >Applies Terraform in AWS</tspan></text><g  id="v-2038" color="#000000" transform="matrix(1,0,0,1,222.5,268)" display="none" style="fill: rgb(0, 0, 0);"><g ></g><g ></g><g ></g><g ></g></g><image  id="v-2039"></image></g></g><!--z-index:31--><g   id="j_185"  transform="translate(983,101)" style=""><g  id="v-2048" style="opacity: 1;"><rect  id="v-2049" rx="1" ry="1" stroke="#78a8d8" stroke-width="2" pointer-events="visiblePainted" fill="#85bbf0" width="450" height="300" style="fill: rgb(133, 187, 240); stroke: rgb(120, 168, 216);"></rect><text  id="v-2050" font-size="34" xml:space="preserve" y="0.8em" font-weight="bold" text-anchor="middle" pointer-events="visible" font-family="Open Sans" fill="#000000" transform="matrix(1,0,0,1,225,102.5)" style="fill: rgb(0, 0, 0);"><tspan dy="0" >Terraform Code</tspan></text><text  id="v-2051" font-size="17" xml:space="preserve" y="0.8em" text-anchor="middle" font-family="Open Sans" fill="#000000" transform="matrix(1,0,0,1,225,143.3)" style="fill: rgb(0, 0, 0);"><tspan dy="0" >[Component: Terraform]</tspan></text><text  id="v-2052" font-size="24" xml:space="preserve" y="0.8em" text-anchor="middle" font-family="Open Sans" fill="#000000" transform="matrix(1,0,0,1,225,173.7)" style="fill: rgb(0, 0, 0);"><tspan dy="0" >Defines and provisions cloud infra</tspan></text><g  id="v-2053" color="#000000" transform="matrix(1,0,0,1,222.5,268)" display="none" style="fill: rgb(0, 0, 0);"><g ></g><g ></g><g ></g><g ></g></g><image  id="v-2054"></image></g></g><!--z-index:32--><g   id="j_186" ><path  stroke="#707070" d="M 683 251 L 983 251" id="v-2064" stroke-width="2" stroke-dasharray="30 30" fill="none" style="opacity: 1;"></path><path  fill="black" stroke="black" d="M 0 0 0 0" transform="matrix(1,0,0,1,683,251)"></path><path  fill="#707070" stroke="#707070" d="M 20 0 L 0 10 L 20 20 z" id="v-2066" transform="matrix(-1,1.2246467991473532e-16,-1.2246467991473532e-16,-1,982.9999999999998,261.00000000000006)" style="opacity: 1;"></path><path  d="M 683 251 L 983 251" id="v-2065" fill="none" style="cursor: default;"></path><g ><g id="v-2058"  label-idx="0" cursor="move" transform="matrix(1,0,0,1,833,251)" style="cursor: default; opacity: 1;"><rect joint-selector="rect" id="v-2061" fill="#ffffff" rx="3" ry="3" pointer-events="none" width="55.79034423828125" height="32.407657623291016" transform="matrix(1,0,0,1,-27.8,-16.2)"></rect><text joint-selector="text" id="v-2060" font-size="24px" xml:space="preserve" y="0.8em" fill="#707070" text-anchor="middle" pointer-events="none" font-family="Open Sans" font-weight="normal" transform="matrix(1,0,0,1,0,-9.9)"><tspan dy="0" >Runs</tspan></text></g><g id="v-2059"  label-idx="1" cursor="move" transform="matrix(1,0,0,1,823,277.3999938964844)" style="cursor: default; opacity: 1;"><rect joint-selector="rect" id="v-2063" fill="#ffffff" rx="3" ry="3"  width="0" height="0" transform="matrix(1,0,0,1,0,0)" display="none"></rect><text joint-selector="text" id="v-2062" fill="#000000" font-size="14" text-anchor="middle" pointer-events="none"></text></g></g><g  display="none"></g><g  id="v-2068" display="none"><g  id="v-2056"><path  end="source" d="M 26 0 L 0 13 L 26 26 z"></path></g><g  id="v-2057"><path  end="target" d="M 26 0 L 0 13 L 26 26 z"></path></g></g><g  id="v-2067" display="none"><g  id="v-2055" transform="translate(723, 251) "><g  event="remove"><circle r="11"></circle><path transform="scale(.8) translate(-16, -16)" d="M24.778,21.419 19.276,15.917 24.777,10.415 21.949,7.585 16.447,13.087 10.945,7.585 8.117,10.415 13.618,15.917 8.116,21.419 10.946,24.248 16.447,18.746 21.948,24.248z"></path><title>Remove link.</title></g><g  event="link:options"><circle r="11" transform="translate(25)"></circle><path fill="white" transform="scale(.55) translate(29, -16)" d="M31.229,17.736c0.064-0.571,0.104-1.148,0.104-1.736s-0.04-1.166-0.104-1.737l-4.377-1.557c-0.218-0.716-0.504-1.401-0.851-2.05l1.993-4.192c-0.725-0.91-1.549-1.734-2.458-2.459l-4.193,1.994c-0.647-0.347-1.334-0.632-2.049-0.849l-1.558-4.378C17.165,0.708,16.588,0.667,16,0.667s-1.166,0.041-1.737,0.105L12.707,5.15c-0.716,0.217-1.401,0.502-2.05,0.849L6.464,4.005C5.554,4.73,4.73,5.554,4.005,6.464l1.994,4.192c-0.347,0.648-0.632,1.334-0.849,2.05l-4.378,1.557C0.708,14.834,0.667,15.412,0.667,16s0.041,1.165,0.105,1.736l4.378,1.558c0.217,0.715,0.502,1.401,0.849,2.049l-1.994,4.193c0.725,0.909,1.549,1.733,2.459,2.458l4.192-1.993c0.648,0.347,1.334,0.633,2.05,0.851l1.557,4.377c0.571,0.064,1.148,0.104,1.737,0.104c0.588,0,1.165-0.04,1.736-0.104l1.558-4.377c0.715-0.218,1.399-0.504,2.049-0.851l4.193,1.993c0.909-0.725,1.733-1.549,2.458-2.458l-1.993-4.193c0.347-0.647,0.633-1.334,0.851-2.049L31.229,17.736zM16,20.871c-2.69,0-4.872-2.182-4.872-4.871c0-2.69,2.182-4.872,4.872-4.872c2.689,0,4.871,2.182,4.871,4.872C20.871,18.689,18.689,20.871,16,20.871z"></path><title>Link options.</title></g></g></g></g><!--z-index:33--><g   id="j_187" ><path  stroke="#707070" d="M 642 1013 L 1024 1326" id="v-2081" stroke-width="2" stroke-dasharray="30 30" fill="none" style="opacity: 1;"></path><path  fill="black" stroke="black" d="M 0 0 0 0" transform="matrix(0.7742850880125917,0.6328369477846038,-0.6328369477846038,0.7742850880125917,641.52001953125,1013)"></path><path  fill="#707070" stroke="#707070" d="M 20 0 L 0 10 L 20 20 z" id="v-2083" transform="matrix(-0.7742851301462583,-0.6328368962334543,0.6328368962334543,-0.7742851301462583,1018.1516039211591,1333.742851123172)" style="opacity: 1;"></path><path  d="M 642 1013 L 1024 1326" id="v-2082" fill="none" style="cursor: default;"></path><g ><g id="v-2075"  label-idx="0" cursor="move" transform="matrix(1,0,0,1,833,1169.5)" style="cursor: default; opacity: 1;"><rect joint-selector="rect" id="v-2078" fill="#ffffff" rx="3" ry="3" pointer-events="none" width="194.69178771972656" height="61.20765495300293" transform="matrix(1,0,0,1,-96.5,-30.6)"></rect><text joint-selector="text" id="v-2077" font-size="24px" xml:space="preserve" y="0.8em" fill="#707070" text-anchor="middle" pointer-events="none" font-family="Open Sans" font-weight="normal" transform="matrix(1,0,0,1,0,-24.3)"><tspan dy="0" >Pushes container</tspan><tspan dy="1.2em" x="0" >images</tspan></text></g><g id="v-2076"  label-idx="1" cursor="move" transform="matrix(1,0,0,1,823,1210.300048828125)" style="cursor: default; opacity: 1;"><rect joint-selector="rect" id="v-2080" fill="#ffffff" rx="3" ry="3"  width="0" height="0" transform="matrix(1,0,0,1,0,0)" display="none"></rect><text joint-selector="text" id="v-2079" fill="#000000" font-size="14" text-anchor="middle" pointer-events="none"></text></g></g><g  display="none"></g><g  id="v-2085" display="none"><g  id="v-2073"><path  end="source" d="M 26 0 L 0 13 L 26 26 z"></path></g><g  id="v-2074"><path  end="target" d="M 26 0 L 0 13 L 26 26 z"></path></g></g><g  id="v-2084" display="none"><g  id="v-2072" transform="translate(672.9402405848996, 1038.3515583850092) "><g  event="remove"><circle r="11"></circle><path transform="scale(.8) translate(-16, -16)" d="M24.778,21.419 19.276,15.917 24.777,10.415 21.949,7.585 16.447,13.087 10.945,7.585 8.117,10.415 13.618,15.917 8.116,21.419 10.946,24.248 16.447,18.746 21.948,24.248z"></path><title>Remove link.</title></g><g  event="link:options"><circle r="11" transform="translate(25)"></circle><path fill="white" transform="scale(.55) translate(29, -16)" d="M31.229,17.736c0.064-0.571,0.104-1.148,0.104-1.736s-0.04-1.166-0.104-1.737l-4.377-1.557c-0.218-0.716-0.504-1.401-0.851-2.05l1.993-4.192c-0.725-0.91-1.549-1.734-2.458-2.459l-4.193,1.994c-0.647-0.347-1.334-0.632-2.049-0.849l-1.558-4.378C17.165,0.708,16.588,0.667,16,0.667s-1.166,0.041-1.737,0.105L12.707,5.15c-0.716,0.217-1.401,0.502-2.05,0.849L6.464,4.005C5.554,4.73,4.73,5.554,4.005,6.464l1.994,4.192c-0.347,0.648-0.632,1.334-0.849,2.05l-4.378,1.557C0.708,14.834,0.667,15.412,0.667,16s0.041,1.165,0.105,1.736l4.378,1.558c0.217,0.715,0.502,1.401,0.849,2.049l-1.994,4.193c0.725,0.909,1.549,1.733,2.459,2.458l4.192-1.993c0.648,0.347,1.334,0.633,2.05,0.851l1.557,4.377c0.571,0.064,1.148,0.104,1.737,0.104c0.588,0,1.165-0.04,1.736-0.104l1.558-4.377c0.715-0.218,1.399-0.504,2.049-0.851l4.193,1.993c0.909-0.725,1.733-1.549,2.458-2.458l-1.993-4.193c0.347-0.647,0.633-1.334,0.851-2.049L31.229,17.736zM16,20.871c-2.69,0-4.872-2.182-4.872-4.871c0-2.69,2.182-4.872,4.872-4.872c2.689,0,4.871,2.182,4.871,4.872C20.871,18.689,18.689,20.871,16,20.871z"></path><title>Link options.</title></g></g></g></g><!--z-index:34--><g   id="j_188" ><path  stroke="#707070" d="M 1208 401 L 1208 1326" id="v-2098" stroke-width="2" stroke-dasharray="30 30" fill="none" style="opacity: 1;"></path><path  fill="black" stroke="black" d="M 0 0 0 0" transform="matrix(6.123233995736766e-17,1,-1,6.123233995736766e-17,1208,401)"></path><path  fill="#707070" stroke="#707070" d="M 20 0 L 0 10 L 20 20 z" id="v-2100" transform="matrix(-1.8369701987210297e-16,-1,1,-1.8369701987210297e-16,1198,1325.9999999999998)" style="opacity: 1;"></path><path  d="M 1208 401 L 1208 1326" id="v-2099" fill="none" style="cursor: default;"></path><g ><g id="v-2092"  label-idx="0" cursor="move" transform="matrix(1,0,0,1,1208,863.5)" style="cursor: default; opacity: 1;"><rect joint-selector="rect" id="v-2095" fill="#ffffff" rx="3" ry="3" pointer-events="none" width="178.69610595703125" height="61.20765495300293" transform="matrix(1,0,0,1,-88.5,-30.6)"></rect><text joint-selector="text" id="v-2094" font-size="24px" xml:space="preserve" y="0.8em" fill="#707070" text-anchor="middle" pointer-events="none" font-family="Open Sans" font-weight="normal" transform="matrix(1,0,0,1,0,-24.3)"><tspan dy="0" >Pulls images for</tspan><tspan dy="1.2em" x="0" >deployment</tspan></text></g><g id="v-2093"  label-idx="1" cursor="move" transform="matrix(1,0,0,1,1198,904.2999877929688)" style="cursor: default; opacity: 1;"><rect joint-selector="rect" id="v-2097" fill="#ffffff" rx="3" ry="3"  width="0" height="0" transform="matrix(1,0,0,1,0,0)" display="none"></rect><text joint-selector="text" id="v-2096" fill="#000000" font-size="14" text-anchor="middle" pointer-events="none"></text></g></g><g  display="none"></g><g  id="v-2102" display="none"><g  id="v-2090"><path  end="source" d="M 26 0 L 0 13 L 26 26 z"></path></g><g  id="v-2091"><path  end="target" d="M 26 0 L 0 13 L 26 26 z"></path></g></g><g  id="v-2101" display="none"><g  id="v-2089" transform="translate(1208, 441) "><g  event="remove"><circle r="11"></circle><path transform="scale(.8) translate(-16, -16)" d="M24.778,21.419 19.276,15.917 24.777,10.415 21.949,7.585 16.447,13.087 10.945,7.585 8.117,10.415 13.618,15.917 8.116,21.419 10.946,24.248 16.447,18.746 21.948,24.248z"></path><title>Remove link.</title></g><g  event="link:options"><circle r="11" transform="translate(25)"></circle><path fill="white" transform="scale(.55) translate(29, -16)" d="M31.229,17.736c0.064-0.571,0.104-1.148,0.104-1.736s-0.04-1.166-0.104-1.737l-4.377-1.557c-0.218-0.716-0.504-1.401-0.851-2.05l1.993-4.192c-0.725-0.91-1.549-1.734-2.458-2.459l-4.193,1.994c-0.647-0.347-1.334-0.632-2.049-0.849l-1.558-4.378C17.165,0.708,16.588,0.667,16,0.667s-1.166,0.041-1.737,0.105L12.707,5.15c-0.716,0.217-1.401,0.502-2.05,0.849L6.464,4.005C5.554,4.73,4.73,5.554,4.005,6.464l1.994,4.192c-0.347,0.648-0.632,1.334-0.849,2.05l-4.378,1.557C0.708,14.834,0.667,15.412,0.667,16s0.041,1.165,0.105,1.736l4.378,1.558c0.217,0.715,0.502,1.401,0.849,2.049l-1.994,4.193c0.725,0.909,1.549,1.733,2.459,2.458l4.192-1.993c0.648,0.347,1.334,0.633,2.05,0.851l1.557,4.377c0.571,0.064,1.148,0.104,1.737,0.104c0.588,0,1.165-0.04,1.736-0.104l1.558-4.377c0.715-0.218,1.399-0.504,2.049-0.851l4.193,1.993c0.909-0.725,1.733-1.549,2.458-2.458l-1.993-4.193c0.347-0.647,0.633-1.334,0.851-2.049L31.229,17.736zM16,20.871c-2.69,0-4.872-2.182-4.872-4.871c0-2.69,2.182-4.872,4.872-4.872c2.689,0,4.871,2.182,4.871,4.872C20.871,18.689,18.689,20.871,16,20.871z"></path><title>Link options.</title></g></g></g></g><!--z-index:35--><!--z-index:36--><!--z-index:37--><!--z-index:38--><!--z-index:39--><!--z-index:40--><!--z-index:41--><!--z-index:42--><!--z-index:43--><!--z-index:44--><!--z-index:45--><!--z-index:46--><!--z-index:47--><!--z-index:48--><!--z-index:49--><!--z-index:50--><!--z-index:51--><!--z-index:52--><!--z-index:53--><!--z-index:54--><!--z-index:55--><!--z-index:56--><!--z-index:57--><!--z-index:58--><!--z-index:59--><!--z-index:60--><!--z-index:61--><!--z-index:62--><!--z-index:63--><!--z-index:64--><!--z-index:65--><!--z-index:66--><!--z-index:67--><!--z-index:68--><!--z-index:69--><!--z-index:70--><!--z-index:71--><!--z-index:72--><!--z-index:73--></g><g ></g><g ></g><g ></g></g></svg>