<svg xmlns="http://www.w3.org/2000/svg" xmlns:xlink="http://www.w3.org/1999/xlink" version="1.1" viewBox="0 0 2716 1716" style="background: #ffffff"><defs><style>@import url(https://fonts.googleapis.com/css?family=Open+Sans:400,700);</style></defs><defs joint-selector="defs"></defs><g joint-selector="layers"  transform="matrix(1,0,0,1,0,0)"><g ></g><g ><!--z-index:0--><!--z-index:1--><!--z-index:2--><!--z-index:3--><!--z-index:4--><!--z-index:5--><!--z-index:6--><!--z-index:7--><!--z-index:8--><!--z-index:9--><!--z-index:10--><!--z-index:11--><!--z-index:12--><!--z-index:13--><!--z-index:14--><!--z-index:15--><!--z-index:16--><g   id="j_217"  transform="translate(20,1679.6)"><g id="v-2382"><text  id="v-2383" font-size="22px" xml:space="preserve" y="0.8em" font-weight="normal" text-anchor="start" fill="#aaaaaa" pointer-events="none" display="block" font-family="Open Sans"><tspan dy="0" >Monday 4 August 2025 at 13:54 British Summer Time</tspan></text></g></g><!--z-index:17--><g   id="j_216"  transform="translate(20,1653.1999999999998)"><g id="v-2380"><text  id="v-2381" font-size="22px" xml:space="preserve" y="0.8em" font-weight="normal" text-anchor="start" fill="#aaaaaa" pointer-events="none" display="block" font-family="Open Sans"><tspan dy="0" >Component view showing the UI modules and OpenAPI client.</tspan></text></g></g><!--z-index:18--><g   id="j_215"  transform="translate(20,1609.9999999999998)"><g id="v-2378"><text  id="v-2379" font-size="36px" xml:space="preserve" y="0.8em" font-weight="normal" text-anchor="start" fill="#000000" pointer-events="none" display="block" font-family="Open Sans"><tspan dy="0" >[Component] ARC Services Portal - Web Frontend</tspan></text></g></g><!--z-index:19--><g   id="j_218"  transform="translate(82,135)" style=""><g  id="v-2387" style="opacity: 1;"><rect  x="0" y="160" width="400" height="240" rx="70" id="v-2389" stroke="#073b6f" stroke-width="2" pointer-events="visiblePainted" fill="#08427b" style="fill: rgb(8, 66, 123); stroke: rgb(7, 59, 111);"></rect><circle  cx="200" cy="88.88888888888889" r="88.88888888888889" id="v-2388" stroke="#073b6f" stroke-width="2" pointer-events="visiblePainted" fill="#08427b" style="fill: rgb(8, 66, 123); stroke: rgb(7, 59, 111);"></circle><line  x1="80" y1="266.6666666666667" x2="80" y2="400" id="v-2395" stroke="#073b6f" stroke-width="2" style="stroke: rgb(7, 59, 111);"></line><line  x1="320" y1="266.6666666666667" x2="320" y2="400" id="v-2396" stroke="#073b6f" stroke-width="2" style="stroke: rgb(7, 59, 111);"></line><text  id="v-2390" font-size="34" xml:space="preserve" y="0.8em" font-weight="bold" text-anchor="middle" pointer-events="visible" font-family="Open Sans" fill="#ffffff" transform="matrix(1,0,0,1,200,218.1)" style="fill: rgb(255, 255, 255);"><tspan dy="0" >Researcher</tspan></text><text  id="v-2391" font-size="17" xml:space="preserve" y="0.8em" text-anchor="middle" font-family="Open Sans" fill="#ffffff" transform="matrix(1,0,0,1,200,258.9)" style="fill: rgb(255, 255, 255);"><tspan dy="0" >[Person]</tspan></text><text  id="v-2392" font-size="24" xml:space="preserve" y="0.8em" text-anchor="middle" font-family="Open Sans" fill="#ffffff" transform="matrix(1,0,0,1,200,289.3)" style="fill: rgb(255, 255, 255);"><tspan dy="0" >Uses the platform to manage</tspan><tspan dy="1.2em" x="0" >their research profile and data.</tspan></text><g  id="v-2393" font-weight="normal" text-anchor="middle" color="#ffffff" transform="matrix(1,0,0,1,197.5,368)" display="none" style="fill: rgb(255, 255, 255);"><g ></g><g ></g><g ></g><g ></g></g><image  id="v-2394"></image></g></g><!--z-index:20--><g   id="j_219"  transform="translate(65,623)" style=""><g  id="v-2400" style="opacity: 1;"><rect  x="0" y="160" width="400" height="240" rx="70" id="v-2402" stroke="#073b6f" stroke-width="2" pointer-events="visiblePainted" fill="#08427b" style="fill: rgb(8, 66, 123); stroke: rgb(7, 59, 111);"></rect><circle  cx="200" cy="88.88888888888889" r="88.88888888888889" id="v-2401" stroke="#073b6f" stroke-width="2" pointer-events="visiblePainted" fill="#08427b" style="fill: rgb(8, 66, 123); stroke: rgb(7, 59, 111);"></circle><line  x1="80" y1="266.6666666666667" x2="80" y2="400" id="v-2408" stroke="#073b6f" stroke-width="2" style="stroke: rgb(7, 59, 111);"></line><line  x1="320" y1="266.6666666666667" x2="320" y2="400" id="v-2409" stroke="#073b6f" stroke-width="2" style="stroke: rgb(7, 59, 111);"></line><text  id="v-2403" font-size="34" xml:space="preserve" y="0.8em" font-weight="bold" text-anchor="middle" pointer-events="visible" font-family="Open Sans" fill="#ffffff" transform="matrix(1,0,0,1,200,203.7)" style="fill: rgb(255, 255, 255);"><tspan dy="0" >Admin</tspan></text><text  id="v-2404" font-size="17" xml:space="preserve" y="0.8em" text-anchor="middle" font-family="Open Sans" fill="#ffffff" transform="matrix(1,0,0,1,200,244.5)" style="fill: rgb(255, 255, 255);"><tspan dy="0" >[Person]</tspan></text><text  id="v-2405" font-size="24" xml:space="preserve" y="0.8em" text-anchor="middle" font-family="Open Sans" fill="#ffffff" transform="matrix(1,0,0,1,200,274.9)" style="fill: rgb(255, 255, 255);"><tspan dy="0" >Portal user with elevated</tspan><tspan dy="1.2em" x="0" >permissions to edit data or</tspan><tspan dy="1.2em" x="0" >review submissions.</tspan></text><g  id="v-2406" font-weight="normal" text-anchor="middle" color="#ffffff" transform="matrix(1,0,0,1,197.5,368)" display="none" style="fill: rgb(255, 255, 255);"><g ></g><g ></g><g ></g><g ></g></g><image  id="v-2407"></image></g></g><!--z-index:21--><g   id="j_221"  transform="translate(770,653)" style=""><g id="v-2420"><rect  id="v-2421" width="1120" height="411" rx="0" ry="0" fill="#ffffff" stroke="#3c7fc0" stroke-width="1" stroke-dasharray="20,20" pointer-events="none"></rect><text  id="v-2422" font-size="24px" xml:space="preserve" y="372" font-weight="normal" fill="#3c7fc0" text-anchor="start" pointer-events="visible" font-family="Open Sans" transform="matrix(1,0,0,1,15,0)"><tspan dy="0" >Web Frontend</tspan></text><text  id="v-2423" font-size="17px" xml:space="preserve" y="396" font-weight="normal" fill="#3c7fc0" text-anchor="start" pointer-events="visible" font-family="Open Sans" transform="matrix(1,0,0,1,15,0)"><tspan dy="0" >[Container]</tspan></text><image  id="v-2424" pointer-events="visible"></image></g></g><!--z-index:22--><g   id="j_220"  transform="translate(790,673)" style=""><g  id="v-2413" style="opacity: 1;"><rect  id="v-2414" rx="1" ry="1" stroke="#78a8d8" stroke-width="2" pointer-events="visiblePainted" fill="#85bbf0" width="450" height="300" style="fill: rgb(133, 187, 240); stroke: rgb(120, 168, 216);"></rect><text  id="v-2415" font-size="34" xml:space="preserve" y="0.8em" font-weight="bold" text-anchor="middle" pointer-events="visible" font-family="Open Sans" fill="#000000" transform="matrix(1,0,0,1,225,88.1)" style="fill: rgb(0, 0, 0);"><tspan dy="0" >Pages</tspan></text><text  id="v-2416" font-size="17" xml:space="preserve" y="0.8em" text-anchor="middle" font-family="Open Sans" fill="#000000" transform="matrix(1,0,0,1,225,128.9)" style="fill: rgb(0, 0, 0);"><tspan dy="0" >[Component: React]</tspan></text><text  id="v-2417" font-size="24" xml:space="preserve" y="0.8em" text-anchor="middle" font-family="Open Sans" fill="#000000" transform="matrix(1,0,0,1,225,159.3)" style="fill: rgb(0, 0, 0);"><tspan dy="0" >UCL Design System-styled pages for</tspan><tspan dy="1.2em" x="0" >profile, studies, projects</tspan></text><g  id="v-2418" color="#000000" transform="matrix(1,0,0,1,222.5,268)" display="none" style="fill: rgb(0, 0, 0);"><g ></g><g ></g><g ></g><g ></g></g><image  id="v-2419"></image></g></g><!--z-index:23--><g   id="j_222"  transform="translate(1420,673)" style=""><g  id="v-2428" style="opacity: 1;"><rect  id="v-2429" rx="1" ry="1" stroke="#78a8d8" stroke-width="2" pointer-events="visiblePainted" fill="#85bbf0" width="450" height="300" style="fill: rgb(133, 187, 240); stroke: rgb(120, 168, 216);"></rect><text  id="v-2430" font-size="34" xml:space="preserve" y="0.8em" font-weight="bold" text-anchor="middle" pointer-events="visible" font-family="Open Sans" fill="#000000" transform="matrix(1,0,0,1,225,102.5)" style="fill: rgb(0, 0, 0);"><tspan dy="0" >API Client</tspan></text><text  id="v-2431" font-size="17" xml:space="preserve" y="0.8em" text-anchor="middle" font-family="Open Sans" fill="#000000" transform="matrix(1,0,0,1,225,143.3)" style="fill: rgb(0, 0, 0);"><tspan dy="0" >[Component: TypeScript]</tspan></text><text  id="v-2432" font-size="24" xml:space="preserve" y="0.8em" text-anchor="middle" font-family="Open Sans" fill="#000000" transform="matrix(1,0,0,1,225,173.7)" style="fill: rgb(0, 0, 0);"><tspan dy="0" >Generated from OpenAPI spec</tspan></text><g  id="v-2433" color="#000000" transform="matrix(1,0,0,1,222.5,268)" display="none" style="fill: rgb(0, 0, 0);"><g ></g><g ></g><g ></g><g ></g></g><image  id="v-2434"></image></g></g><!--z-index:24--><g   id="j_223"  transform="translate(2200,673)" style=""><g  id="v-2441" style="opacity: 1;"><rect  id="v-2442" rx="1" ry="1" stroke="#3c7fc0" stroke-width="2" pointer-events="visiblePainted" fill="#438dd5" width="450" height="300" style="fill: rgb(67, 141, 213); stroke: rgb(60, 127, 192);"></rect><text  id="v-2443" font-size="34" xml:space="preserve" y="0.8em" font-weight="bold" text-anchor="middle" pointer-events="visible" font-family="Open Sans" fill="#ffffff" transform="matrix(1,0,0,1,225,88.1)" style="fill: rgb(255, 255, 255);"><tspan dy="0" >OAuth2 Proxy</tspan></text><text  id="v-2444" font-size="17" xml:space="preserve" y="0.8em" text-anchor="middle" font-family="Open Sans" fill="#ffffff" transform="matrix(1,0,0,1,225,128.9)" style="fill: rgb(255, 255, 255);"><tspan dy="0" >[Container: quay.io/oauth2-proxy/oauth2-proxy]</tspan></text><text  id="v-2445" font-size="24" xml:space="preserve" y="0.8em" text-anchor="middle" font-family="Open Sans" fill="#ffffff" transform="matrix(1,0,0,1,225,159.3)" style="fill: rgb(255, 255, 255);"><tspan dy="0" >Proxy providing OAuth2</tspan><tspan dy="1.2em" x="0" >authentication</tspan></text><g  id="v-2446" color="#ffffff" transform="matrix(1,0,0,1,222.5,268)" display="none" style="fill: rgb(255, 255, 255);"><g ></g><g ></g><g ></g><g ></g></g><image  id="v-2447"></image></g></g><!--z-index:25--><g   id="j_224"  transform="translate(790,1185)" style=""><g  id="v-2451" style="opacity: 1;"><rect  id="v-2452" rx="1" ry="1" stroke="#3c7fc0" stroke-width="2" pointer-events="visiblePainted" fill="#438dd5" width="450" height="300" style="fill: rgb(67, 141, 213); stroke: rgb(60, 127, 192);"></rect><text  id="v-2453" font-size="34" xml:space="preserve" y="0.8em" font-weight="bold" text-anchor="middle" pointer-events="visible" font-family="Open Sans" fill="#ffffff" transform="matrix(1,0,0,1,225,88.1)" style="fill: rgb(255, 255, 255);"><tspan dy="0" >Reverse Proxy</tspan></text><text  id="v-2454" font-size="17" xml:space="preserve" y="0.8em" text-anchor="middle" font-family="Open Sans" fill="#ffffff" transform="matrix(1,0,0,1,225,128.9)" style="fill: rgb(255, 255, 255);"><tspan dy="0" >[Container: nginx]</tspan></text><text  id="v-2455" font-size="24" xml:space="preserve" y="0.8em" text-anchor="middle" font-family="Open Sans" fill="#ffffff" transform="matrix(1,0,0,1,225,159.3)" style="fill: rgb(255, 255, 255);"><tspan dy="0" >Routes requests to frontend and</tspan><tspan dy="1.2em" x="0" >backend</tspan></text><g  id="v-2456" color="#ffffff" transform="matrix(1,0,0,1,222.5,268)" display="none" style="fill: rgb(255, 255, 255);"><g ></g><g ></g><g ></g><g ></g></g><image  id="v-2457"></image></g></g><!--z-index:26--><g   id="j_225" ><path  stroke="#707070" d="M 1240 823 L 1420 823" id="v-2467" stroke-width="2" stroke-dasharray="30 30" fill="none" style="opacity: 1;"></path><path  fill="black" stroke="black" d="M 0 0 0 0" transform="matrix(1,0,0,1,1240,823)"></path><path  fill="#707070" stroke="#707070" d="M 20 0 L 0 10 L 20 20 z" id="v-2469" transform="matrix(-1,1.2246467991473532e-16,-1.2246467991473532e-16,-1,1420,833)" style="opacity: 1;"></path><path  d="M 1240 823 L 1420 823" id="v-2468" fill="none" style="cursor: default;"></path><g ><g id="v-2461"  label-idx="0" cursor="move" transform="matrix(1,0,0,1,1330,823)" style="cursor: default; opacity: 1;"><rect joint-selector="rect" id="v-2464" fill="#ffffff" rx="3" ry="3" pointer-events="none" width="53.92703628540039" height="33.417720794677734" transform="matrix(1,0,0,1,-26,-16.7)"></rect><text joint-selector="text" id="v-2463" font-size="24px" xml:space="preserve" y="0.8em" fill="#707070" text-anchor="middle" pointer-events="none" font-family="Open Sans" font-weight="normal" transform="matrix(1,0,0,1,0,-9.2)"><tspan dy="0" >Calls</tspan></text></g><g id="v-2462"  label-idx="1" cursor="move" transform="matrix(1,0,0,1,1320,849.4000244140625)" style="cursor: default; opacity: 1;"><rect joint-selector="rect" id="v-2466" fill="#ffffff" rx="3" ry="3"  width="0" height="0" transform="matrix(1,0,0,1,0,0)" display="none"></rect><text joint-selector="text" id="v-2465" fill="#000000" font-size="14" text-anchor="middle" pointer-events="none"></text></g></g><g  display="none"></g><g  id="v-2471" display="none"><g  id="v-2459"><path  end="source" d="M 26 0 L 0 13 L 26 26 z"></path></g><g  id="v-2460"><path  end="target" d="M 26 0 L 0 13 L 26 26 z"></path></g></g><g  id="v-2470" display="none"><g  id="v-2458" transform="translate(1280, 823) "><g  event="remove"><circle r="11"></circle><path transform="scale(.8) translate(-16, -16)" d="M24.778,21.419 19.276,15.917 24.777,10.415 21.949,7.585 16.447,13.087 10.945,7.585 8.117,10.415 13.618,15.917 8.116,21.419 10.946,24.248 16.447,18.746 21.948,24.248z"></path><title>Remove link.</title></g><g  event="link:options"><circle r="11" transform="translate(25)"></circle><path fill="white" transform="scale(.55) translate(29, -16)" d="M31.229,17.736c0.064-0.571,0.104-1.148,0.104-1.736s-0.04-1.166-0.104-1.737l-4.377-1.557c-0.218-0.716-0.504-1.401-0.851-2.05l1.993-4.192c-0.725-0.91-1.549-1.734-2.458-2.459l-4.193,1.994c-0.647-0.347-1.334-0.632-2.049-0.849l-1.558-4.378C17.165,0.708,16.588,0.667,16,0.667s-1.166,0.041-1.737,0.105L12.707,5.15c-0.716,0.217-1.401,0.502-2.05,0.849L6.464,4.005C5.554,4.73,4.73,5.554,4.005,6.464l1.994,4.192c-0.347,0.648-0.632,1.334-0.849,2.05l-4.378,1.557C0.708,14.834,0.667,15.412,0.667,16s0.041,1.165,0.105,1.736l4.378,1.558c0.217,0.715,0.502,1.401,0.849,2.049l-1.994,4.193c0.725,0.909,1.549,1.733,2.459,2.458l4.192-1.993c0.648,0.347,1.334,0.633,2.05,0.851l1.557,4.377c0.571,0.064,1.148,0.104,1.737,0.104c0.588,0,1.165-0.04,1.736-0.104l1.558-4.377c0.715-0.218,1.399-0.504,2.049-0.851l4.193,1.993c0.909-0.725,1.733-1.549,2.458-2.458l-1.993-4.193c0.347-0.647,0.633-1.334,0.851-2.049L31.229,17.736zM16,20.871c-2.69,0-4.872-2.182-4.872-4.871c0-2.69,2.182-4.872,4.872-4.872c2.689,0,4.871,2.182,4.871,4.872C20.871,18.689,18.689,20.871,16,20.871z"></path><title>Link options.</title></g></g></g></g><!--z-index:27--><g   id="j_226" ><path  stroke="#707070" d="M 1015 1185 L 1015 973" id="v-2481" stroke-width="2" stroke-dasharray="30 30" fill="none" style="opacity: 1;"></path><path  fill="black" stroke="black" d="M 0 0 0 0" transform="matrix(-1.8369701987210297e-16,-1,1,-1.8369701987210297e-16,1015,1185)"></path><path  fill="#707070" stroke="#707070" d="M 20 0 L 0 10 L 20 20 z" id="v-2483" transform="matrix(6.123233995736766e-17,1,-1,6.123233995736766e-17,1025,973)" style="opacity: 1;"></path><path  d="M 1015 1185 L 1015 973" id="v-2482" fill="none" style="cursor: default;"></path><g ><g id="v-2475"  label-idx="0" cursor="move" transform="matrix(1,0,0,1,1015,1079)" style="cursor: default; opacity: 1;"><rect joint-selector="rect" id="v-2478" fill="#ffffff" rx="3" ry="3" pointer-events="none" width="75.2614974975586" height="33.417720794677734" transform="matrix(1,0,0,1,-36.7,-16.7)"></rect><text joint-selector="text" id="v-2477" font-size="24px" xml:space="preserve" y="0.8em" fill="#707070" text-anchor="middle" pointer-events="none" font-family="Open Sans" font-weight="normal" transform="matrix(1,0,0,1,0,-9.2)"><tspan dy="0" >Serves</tspan></text></g><g id="v-2476"  label-idx="1" cursor="move" transform="matrix(1,0,0,1,1005,1105.4000244140625)" style="cursor: default; opacity: 1;"><rect joint-selector="rect" id="v-2480" fill="#ffffff" rx="3" ry="3"  width="0" height="0" transform="matrix(1,0,0,1,0,0)" display="none"></rect><text joint-selector="text" id="v-2479" fill="#000000" font-size="14" text-anchor="middle" pointer-events="none"></text></g></g><g  display="none"></g><g  id="v-2485" display="none"><g  id="v-2473"><path  end="source" d="M 26 0 L 0 13 L 26 26 z"></path></g><g  id="v-2474"><path  end="target" d="M 26 0 L 0 13 L 26 26 z"></path></g></g><g  id="v-2484" display="none"><g  id="v-2472" transform="translate(1015, 1145) "><g  event="remove"><circle r="11"></circle><path transform="scale(.8) translate(-16, -16)" d="M24.778,21.419 19.276,15.917 24.777,10.415 21.949,7.585 16.447,13.087 10.945,7.585 8.117,10.415 13.618,15.917 8.116,21.419 10.946,24.248 16.447,18.746 21.948,24.248z"></path><title>Remove link.</title></g><g  event="link:options"><circle r="11" transform="translate(25)"></circle><path fill="white" transform="scale(.55) translate(29, -16)" d="M31.229,17.736c0.064-0.571,0.104-1.148,0.104-1.736s-0.04-1.166-0.104-1.737l-4.377-1.557c-0.218-0.716-0.504-1.401-0.851-2.05l1.993-4.192c-0.725-0.91-1.549-1.734-2.458-2.459l-4.193,1.994c-0.647-0.347-1.334-0.632-2.049-0.849l-1.558-4.378C17.165,0.708,16.588,0.667,16,0.667s-1.166,0.041-1.737,0.105L12.707,5.15c-0.716,0.217-1.401,0.502-2.05,0.849L6.464,4.005C5.554,4.73,4.73,5.554,4.005,6.464l1.994,4.192c-0.347,0.648-0.632,1.334-0.849,2.05l-4.378,1.557C0.708,14.834,0.667,15.412,0.667,16s0.041,1.165,0.105,1.736l4.378,1.558c0.217,0.715,0.502,1.401,0.849,2.049l-1.994,4.193c0.725,0.909,1.549,1.733,2.459,2.458l4.192-1.993c0.648,0.347,1.334,0.633,2.05,0.851l1.557,4.377c0.571,0.064,1.148,0.104,1.737,0.104c0.588,0,1.165-0.04,1.736-0.104l1.558-4.377c0.715-0.218,1.399-0.504,2.049-0.851l4.193,1.993c0.909-0.725,1.733-1.549,2.458-2.458l-1.993-4.193c0.347-0.647,0.633-1.334,0.851-2.049L31.229,17.736zM16,20.871c-2.69,0-4.872-2.182-4.872-4.871c0-2.69,2.182-4.872,4.872-4.872c2.689,0,4.871,2.182,4.871,4.872C20.871,18.689,18.689,20.871,16,20.871z"></path><title>Link options.</title></g></g></g></g><!--z-index:28--><g   id="j_227" ><path  stroke="#707070" d="M 1870 823 L 2200 823" id="v-2498" stroke-width="2" stroke-dasharray="30 30" fill="none" style="opacity: 1;"></path><path  fill="black" stroke="black" d="M 0 0 0 0" transform="matrix(1,0,0,1,1870,823)"></path><path  fill="#707070" stroke="#707070" d="M 20 0 L 0 10 L 20 20 z" id="v-2500" transform="matrix(-1,1.2246467991473532e-16,-1.2246467991473532e-16,-1,2200,833)" style="opacity: 1;"></path><path  d="M 1870 823 L 2200 823" id="v-2499" fill="none" style="cursor: default;"></path><g ><g id="v-2492"  label-idx="0" cursor="move" transform="matrix(1,0,0,1,2035,823)" style="cursor: default; opacity: 1;"><rect joint-selector="rect" id="v-2495" fill="#ffffff" rx="3" ry="3" pointer-events="none" width="163.57675170898438" height="119.81773376464844" transform="matrix(1,0,0,1,-81.4,-59.9)"></rect><text joint-selector="text" id="v-2494" font-size="24px" xml:space="preserve" y="0.8em" fill="#707070" text-anchor="middle" pointer-events="none" font-family="Open Sans" font-weight="normal" transform="matrix(1,0,0,1,0,-52.4)"><tspan dy="0" >Forwards</tspan><tspan dy="1.2em" x="0" >/web/api</tspan><tspan dy="1.2em" x="0" >requests for</tspan><tspan dy="1.2em" x="0" >authentication</tspan></text></g><g id="v-2493"  label-idx="1" cursor="move" transform="matrix(1,0,0,1,2025,892.5999755859375)" style="cursor: default; opacity: 1;"><rect joint-selector="rect" id="v-2497" fill="#ffffff" rx="3" ry="3"  width="0" height="0" transform="matrix(1,0,0,1,0,0)" display="none"></rect><text joint-selector="text" id="v-2496" fill="#000000" font-size="14" text-anchor="middle" pointer-events="none"></text></g></g><g  display="none"></g><g  id="v-2502" display="none"><g  id="v-2490"><path  end="source" d="M 26 0 L 0 13 L 26 26 z"></path></g><g  id="v-2491"><path  end="target" d="M 26 0 L 0 13 L 26 26 z"></path></g></g><g  id="v-2501" display="none"><g  id="v-2489" transform="translate(1910, 823) "><g  event="remove"><circle r="11"></circle><path transform="scale(.8) translate(-16, -16)" d="M24.778,21.419 19.276,15.917 24.777,10.415 21.949,7.585 16.447,13.087 10.945,7.585 8.117,10.415 13.618,15.917 8.116,21.419 10.946,24.248 16.447,18.746 21.948,24.248z"></path><title>Remove link.</title></g><g  event="link:options"><circle r="11" transform="translate(25)"></circle><path fill="white" transform="scale(.55) translate(29, -16)" d="M31.229,17.736c0.064-0.571,0.104-1.148,0.104-1.736s-0.04-1.166-0.104-1.737l-4.377-1.557c-0.218-0.716-0.504-1.401-0.851-2.05l1.993-4.192c-0.725-0.91-1.549-1.734-2.458-2.459l-4.193,1.994c-0.647-0.347-1.334-0.632-2.049-0.849l-1.558-4.378C17.165,0.708,16.588,0.667,16,0.667s-1.166,0.041-1.737,0.105L12.707,5.15c-0.716,0.217-1.401,0.502-2.05,0.849L6.464,4.005C5.554,4.73,4.73,5.554,4.005,6.464l1.994,4.192c-0.347,0.648-0.632,1.334-0.849,2.05l-4.378,1.557C0.708,14.834,0.667,15.412,0.667,16s0.041,1.165,0.105,1.736l4.378,1.558c0.217,0.715,0.502,1.401,0.849,2.049l-1.994,4.193c0.725,0.909,1.549,1.733,2.459,2.458l4.192-1.993c0.648,0.347,1.334,0.633,2.05,0.851l1.557,4.377c0.571,0.064,1.148,0.104,1.737,0.104c0.588,0,1.165-0.04,1.736-0.104l1.558-4.377c0.715-0.218,1.399-0.504,2.049-0.851l4.193,1.993c0.909-0.725,1.733-1.549,2.458-2.458l-1.993-4.193c0.347-0.647,0.633-1.334,0.851-2.049L31.229,17.736zM16,20.871c-2.69,0-4.872-2.182-4.872-4.871c0-2.69,2.182-4.872,4.872-4.872c2.689,0,4.871,2.182,4.871,4.872C20.871,18.689,18.689,20.871,16,20.871z"></path><title>Link options.</title></g></g></g></g><!--z-index:29--><g   id="j_228" ><path  stroke="#707070" d="M 482 468 L 790 673" id="v-2515" stroke-width="2" stroke-dasharray="30 30" fill="none" style="opacity: 1;"></path><path  fill="black" stroke="black" d="M 0 0 0 0" transform="matrix(0.8324035611815976,0.5541699300144264,-0.5541699300144264,0.8324035611815976,482,468.1499938964844)"></path><path  fill="#707070" stroke="#707070" d="M 20 0 L 0 10 L 20 20 z" id="v-2517" transform="matrix(-0.8324035242855008,-0.5541699854350447,0.5541699854350447,-0.8324035242855008,784.4582997439733,681.524060292518)" style="opacity: 1;"></path><path  d="M 482 468 L 790 673" id="v-2516" fill="none" style="cursor: default;"></path><g ><g id="v-2509"  label-idx="0" cursor="move" transform="matrix(1,0,0,1,636,570.5)" style="cursor: default; opacity: 1;"><rect joint-selector="rect" id="v-2512" fill="#ffffff" rx="3" ry="3" pointer-events="none" width="139.2782440185547" height="62.21772575378418" transform="matrix(1,0,0,1,-70.8,-31.1)"></rect><text joint-selector="text" id="v-2511" font-size="24px" xml:space="preserve" y="0.8em" fill="#707070" text-anchor="middle" pointer-events="none" font-family="Open Sans" font-weight="normal" transform="matrix(1,0,0,1,0,-23.6)"><tspan dy="0" >Accesses via</tspan><tspan dy="1.2em" x="0" >browser</tspan></text></g><g id="v-2510"  label-idx="1" cursor="move" transform="matrix(1,0,0,1,626,611.2999877929688)" style="cursor: default; opacity: 1;"><rect joint-selector="rect" id="v-2514" fill="#ffffff" rx="3" ry="3"  width="0" height="0" transform="matrix(1,0,0,1,0,0)" display="none"></rect><text joint-selector="text" id="v-2513" fill="#000000" font-size="14" text-anchor="middle" pointer-events="none"></text></g></g><g  display="none"></g><g  id="v-2519" display="none"><g  id="v-2507"><path  end="source" d="M 26 0 L 0 13 L 26 26 z"></path></g><g  id="v-2508"><path  end="target" d="M 26 0 L 0 13 L 26 26 z"></path></g></g><g  id="v-2518" display="none"><g  id="v-2506" transform="translate(515.2986351071742, 490.1630525875672) "><g  event="remove"><circle r="11"></circle><path transform="scale(.8) translate(-16, -16)" d="M24.778,21.419 19.276,15.917 24.777,10.415 21.949,7.585 16.447,13.087 10.945,7.585 8.117,10.415 13.618,15.917 8.116,21.419 10.946,24.248 16.447,18.746 21.948,24.248z"></path><title>Remove link.</title></g><g  event="link:options"><circle r="11" transform="translate(25)"></circle><path fill="white" transform="scale(.55) translate(29, -16)" d="M31.229,17.736c0.064-0.571,0.104-1.148,0.104-1.736s-0.04-1.166-0.104-1.737l-4.377-1.557c-0.218-0.716-0.504-1.401-0.851-2.05l1.993-4.192c-0.725-0.91-1.549-1.734-2.458-2.459l-4.193,1.994c-0.647-0.347-1.334-0.632-2.049-0.849l-1.558-4.378C17.165,0.708,16.588,0.667,16,0.667s-1.166,0.041-1.737,0.105L12.707,5.15c-0.716,0.217-1.401,0.502-2.05,0.849L6.464,4.005C5.554,4.73,4.73,5.554,4.005,6.464l1.994,4.192c-0.347,0.648-0.632,1.334-0.849,2.05l-4.378,1.557C0.708,14.834,0.667,15.412,0.667,16s0.041,1.165,0.105,1.736l4.378,1.558c0.217,0.715,0.502,1.401,0.849,2.049l-1.994,4.193c0.725,0.909,1.549,1.733,2.459,2.458l4.192-1.993c0.648,0.347,1.334,0.633,2.05,0.851l1.557,4.377c0.571,0.064,1.148,0.104,1.737,0.104c0.588,0,1.165-0.04,1.736-0.104l1.558-4.377c0.715-0.218,1.399-0.504,2.049-0.851l4.193,1.993c0.909-0.725,1.733-1.549,2.458-2.458l-1.993-4.193c0.347-0.647,0.633-1.334,0.851-2.049L31.229,17.736zM16,20.871c-2.69,0-4.872-2.182-4.872-4.871c0-2.69,2.182-4.872,4.872-4.872c2.689,0,4.871,2.182,4.871,4.872C20.871,18.689,18.689,20.871,16,20.871z"></path><title>Link options.</title></g></g></g></g><!--z-index:30--><g   id="j_229" ><path  stroke="#707070" d="M 465 823 L 790 823" id="v-2532" stroke-width="2" stroke-dasharray="30 30" fill="none" style="opacity: 1;"></path><path  fill="black" stroke="black" d="M 0 0 0 0" transform="matrix(1,0,0,1,465,823)"></path><path  fill="#707070" stroke="#707070" d="M 20 0 L 0 10 L 20 20 z" id="v-2534" transform="matrix(-1,1.2246467991473532e-16,-1.2246467991473532e-16,-1,790,833)" style="opacity: 1;"></path><path  d="M 465 823 L 790 823" id="v-2533" fill="none" style="cursor: default;"></path><g ><g id="v-2526"  label-idx="0" cursor="move" transform="matrix(1,0,0,1,627.5,823)" style="cursor: default; opacity: 1;"><rect joint-selector="rect" id="v-2529" fill="#ffffff" rx="3" ry="3" pointer-events="none" width="173.46481323242188" height="62.21772575378418" transform="matrix(1,0,0,1,-87.8,-31.1)"></rect><text joint-selector="text" id="v-2528" font-size="24px" xml:space="preserve" y="0.8em" fill="#707070" text-anchor="middle" pointer-events="none" font-family="Open Sans" font-weight="normal" transform="matrix(1,0,0,1,0,-23.6)"><tspan dy="0" >Administers via</tspan><tspan dy="1.2em" x="0" >browser</tspan></text></g><g id="v-2527"  label-idx="1" cursor="move" transform="matrix(1,0,0,1,617.5,863.7999877929688)" style="cursor: default; opacity: 1;"><rect joint-selector="rect" id="v-2531" fill="#ffffff" rx="3" ry="3"  width="0" height="0" transform="matrix(1,0,0,1,0,0)" display="none"></rect><text joint-selector="text" id="v-2530" fill="#000000" font-size="14" text-anchor="middle" pointer-events="none"></text></g></g><g  display="none"></g><g  id="v-2536" display="none"><g  id="v-2524"><path  end="source" d="M 26 0 L 0 13 L 26 26 z"></path></g><g  id="v-2525"><path  end="target" d="M 26 0 L 0 13 L 26 26 z"></path></g></g><g  id="v-2535" display="none"><g  id="v-2523" transform="translate(505, 823) "><g  event="remove"><circle r="11"></circle><path transform="scale(.8) translate(-16, -16)" d="M24.778,21.419 19.276,15.917 24.777,10.415 21.949,7.585 16.447,13.087 10.945,7.585 8.117,10.415 13.618,15.917 8.116,21.419 10.946,24.248 16.447,18.746 21.948,24.248z"></path><title>Remove link.</title></g><g  event="link:options"><circle r="11" transform="translate(25)"></circle><path fill="white" transform="scale(.55) translate(29, -16)" d="M31.229,17.736c0.064-0.571,0.104-1.148,0.104-1.736s-0.04-1.166-0.104-1.737l-4.377-1.557c-0.218-0.716-0.504-1.401-0.851-2.05l1.993-4.192c-0.725-0.91-1.549-1.734-2.458-2.459l-4.193,1.994c-0.647-0.347-1.334-0.632-2.049-0.849l-1.558-4.378C17.165,0.708,16.588,0.667,16,0.667s-1.166,0.041-1.737,0.105L12.707,5.15c-0.716,0.217-1.401,0.502-2.05,0.849L6.464,4.005C5.554,4.73,4.73,5.554,4.005,6.464l1.994,4.192c-0.347,0.648-0.632,1.334-0.849,2.05l-4.378,1.557C0.708,14.834,0.667,15.412,0.667,16s0.041,1.165,0.105,1.736l4.378,1.558c0.217,0.715,0.502,1.401,0.849,2.049l-1.994,4.193c0.725,0.909,1.549,1.733,2.459,2.458l4.192-1.993c0.648,0.347,1.334,0.633,2.05,0.851l1.557,4.377c0.571,0.064,1.148,0.104,1.737,0.104c0.588,0,1.165-0.04,1.736-0.104l1.558-4.377c0.715-0.218,1.399-0.504,2.049-0.851l4.193,1.993c0.909-0.725,1.733-1.549,2.458-2.458l-1.993-4.193c0.347-0.647,0.633-1.334,0.851-2.049L31.229,17.736zM16,20.871c-2.69,0-4.872-2.182-4.872-4.871c0-2.69,2.182-4.872,4.872-4.872c2.689,0,4.871,2.182,4.871,4.872C20.871,18.689,18.689,20.871,16,20.871z"></path><title>Link options.</title></g></g></g></g><!--z-index:31--><!--z-index:32--><!--z-index:33--><!--z-index:34--><!--z-index:35--><!--z-index:36--><!--z-index:37--><!--z-index:38--><!--z-index:39--><!--z-index:40--><!--z-index:41--><!--z-index:42--><!--z-index:43--><!--z-index:44--><!--z-index:45--><!--z-index:46--><!--z-index:47--><!--z-index:48--><!--z-index:49--><!--z-index:50--><!--z-index:51--><!--z-index:52--><!--z-index:53--><!--z-index:54--><!--z-index:55--><!--z-index:56--><!--z-index:57--><!--z-index:58--><!--z-index:59--><!--z-index:60--><!--z-index:61--><!--z-index:62--><!--z-index:63--><!--z-index:64--><!--z-index:65--><!--z-index:66--><!--z-index:67--><!--z-index:68--><!--z-index:69--><!--z-index:70--><!--z-index:71--><!--z-index:72--><!--z-index:73--></g><g ></g><g ></g><g ></g></g></svg>