<svg xmlns="http://www.w3.org/2000/svg" xmlns:xlink="http://www.w3.org/1999/xlink" version="1.1" viewBox="0 0 3866 2366" style="background: #ffffff"><defs><style>@import url(https://fonts.googleapis.com/css?family=Open+Sans:400,700);</style></defs><defs joint-selector="defs"></defs><g joint-selector="layers"  transform="matrix(1,0,0,1,0,0)"><g ></g><g ><!--z-index:0--><!--z-index:1--><!--z-index:2--><!--z-index:3--><!--z-index:4--><!--z-index:5--><!--z-index:6--><!--z-index:7--><!--z-index:8--><!--z-index:9--><!--z-index:10--><!--z-index:11--><!--z-index:12--><!--z-index:13--><!--z-index:14--><!--z-index:15--><!--z-index:16--><!--z-index:17--><!--z-index:18--><!--z-index:19--><!--z-index:20--><!--z-index:21--><!--z-index:22--><!--z-index:23--><!--z-index:24--><!--z-index:25--><!--z-index:26--><!--z-index:27--><!--z-index:28--><!--z-index:29--><!--z-index:30--><!--z-index:31--><!--z-index:32--><!--z-index:33--><!--z-index:34--><!--z-index:35--><!--z-index:36--><!--z-index:37--><!--z-index:38--><!--z-index:39--><!--z-index:40--><!--z-index:41--><!--z-index:42--><!--z-index:43--><!--z-index:44--><!--z-index:45--><!--z-index:46--><!--z-index:47--><!--z-index:48--><g   id="j_162"  transform="translate(20,2329.6)"><g id="v-1706"><text  id="v-1707" font-size="22px" xml:space="preserve" y="0.8em" font-weight="normal" text-anchor="start" fill="#aaaaaa" pointer-events="none" display="block" font-family="Open Sans"><tspan dy="0" >Monday 4 August 2025 at 12:53 British Summer Time</tspan></text></g></g><!--z-index:49--><g   id="j_161"  transform="translate(20,2303.2)"><g id="v-1704"><text  id="v-1705" font-size="22px" xml:space="preserve" y="0.8em" font-weight="normal" text-anchor="start" fill="#aaaaaa" pointer-events="none" display="block" font-family="Open Sans"><tspan dy="0" >Component view showing key service components inside the API backend.</tspan></text></g></g><!--z-index:50--><g   id="j_160"  transform="translate(20,2260)"><g id="v-1702"><text  id="v-1703" font-size="36px" xml:space="preserve" y="0.8em" font-weight="normal" text-anchor="start" fill="#000000" pointer-events="none" display="block" font-family="Open Sans"><tspan dy="0" >[Component] ARC Services Portal - API</tspan></text></g></g><!--z-index:51--><g   id="j_165"  transform="translate(1668,433)" style=""><g id="v-1723"><rect  id="v-1724" width="1280" height="1435" rx="0" ry="0" fill="#ffffff" stroke="#3c7fc0" stroke-width="1" stroke-dasharray="20,20" pointer-events="none"></rect><text  id="v-1725" font-size="24px" xml:space="preserve" y="1396" font-weight="normal" fill="#3c7fc0" text-anchor="start" pointer-events="visible" font-family="Open Sans" transform="matrix(1,0,0,1,15,0)"><tspan dy="0" >API</tspan></text><text  id="v-1726" font-size="17px" xml:space="preserve" y="1420" font-weight="normal" fill="#3c7fc0" text-anchor="start" pointer-events="visible" font-family="Open Sans" transform="matrix(1,0,0,1,15,0)"><tspan dy="0" >[Container]</tspan></text><image  id="v-1727" pointer-events="visible"></image></g></g><!--z-index:52--><g   id="j_164"  transform="translate(2438,453)" style=""><g id="v-1718"><rect  id="v-1719" width="490" height="1324" rx="0" ry="0" fill="#ffffff" stroke="#444444" stroke-width="1" stroke-dasharray="5,5" pointer-events="none"></rect><text  id="v-1720" font-size="24px" xml:space="preserve" y="1309" font-weight="normal" fill="#444444" text-anchor="start" pointer-events="visible" font-family="Open Sans" transform="matrix(1,0,0,1,15,0)"><tspan dy="0" >Shared Services</tspan></text><text  id="v-1721" font-size="17px" xml:space="preserve" display="none" y="1309" font-weight="normal" fill="#444444" text-anchor="start" pointer-events="visible" font-family="Open Sans" transform="matrix(1,0,0,1,15,0)"><tspan dy="0" style="fill-opacity: 0; stroke-opacity: 0;" >-</tspan></text><image  id="v-1722" pointer-events="visible"></image></g></g><!--z-index:53--><g   id="j_169"  transform="translate(1688,709)" style=""><g id="v-1752"><rect  id="v-1753" width="490" height="394" rx="0" ry="0" fill="#ffffff" stroke="#444444" stroke-width="1" stroke-dasharray="5,5" pointer-events="none"></rect><text  id="v-1754" font-size="24px" xml:space="preserve" y="379" font-weight="normal" fill="#444444" text-anchor="start" pointer-events="visible" font-family="Open Sans" transform="matrix(1,0,0,1,15,0)"><tspan dy="0" >Web API</tspan></text><text  id="v-1755" font-size="17px" xml:space="preserve" display="none" y="379" font-weight="normal" fill="#444444" text-anchor="start" pointer-events="visible" font-family="Open Sans" transform="matrix(1,0,0,1,15,0)"><tspan dy="0" style="fill-opacity: 0; stroke-opacity: 0;" >-</tspan></text><image  id="v-1756" pointer-events="visible"></image></g></g><!--z-index:54--><g   id="j_171"  transform="translate(1688,1326)" style=""><g id="v-1767"><rect  id="v-1768" width="490" height="394" rx="0" ry="0" fill="#ffffff" stroke="#444444" stroke-width="1" stroke-dasharray="5,5" pointer-events="none"></rect><text  id="v-1769" font-size="24px" xml:space="preserve" y="379" font-weight="normal" fill="#444444" text-anchor="start" pointer-events="visible" font-family="Open Sans" transform="matrix(1,0,0,1,15,0)"><tspan dy="0" >TRE API</tspan></text><text  id="v-1770" font-size="17px" xml:space="preserve" display="none" y="379" font-weight="normal" fill="#444444" text-anchor="start" pointer-events="visible" font-family="Open Sans" transform="matrix(1,0,0,1,15,0)"><tspan dy="0" style="fill-opacity: 0; stroke-opacity: 0;" >-</tspan></text><image  id="v-1771" pointer-events="visible"></image></g></g><!--z-index:55--><g   id="j_163"  transform="translate(2458,938)" style=""><g  id="v-1711" style="opacity: 1;"><rect  id="v-1712" rx="1" ry="1" stroke="#78a8d8" stroke-width="2" pointer-events="visiblePainted" fill="#85bbf0" width="450" height="300" style="fill: rgb(133, 187, 240); stroke: rgb(120, 168, 216);"></rect><text  id="v-1713" font-size="34" xml:space="preserve" y="0.8em" font-weight="bold" text-anchor="middle" pointer-events="visible" font-family="Open Sans" fill="#000000" transform="matrix(1,0,0,1,225,102.5)" style="fill: rgb(0, 0, 0);"><tspan dy="0" >Project Service</tspan></text><text  id="v-1714" font-size="17" xml:space="preserve" y="0.8em" text-anchor="middle" font-family="Open Sans" fill="#000000" transform="matrix(1,0,0,1,225,143.3)" style="fill: rgb(0, 0, 0);"><tspan dy="0" >[Component: Go]</tspan></text><text  id="v-1715" font-size="24" xml:space="preserve" y="0.8em" text-anchor="middle" font-family="Open Sans" fill="#000000" transform="matrix(1,0,0,1,225,173.7)" style="fill: rgb(0, 0, 0);"><tspan dy="0" >Handles project workflows</tspan></text><g  id="v-1716" color="#000000" transform="matrix(1,0,0,1,222.5,268)" display="none" style="fill: rgb(0, 0, 0);"><g ></g><g ></g><g ></g><g ></g></g><image  id="v-1717"></image></g></g><!--z-index:56--><g   id="j_166"  transform="translate(2458,473)" style=""><g  id="v-1728" style="opacity: 1;"><rect  id="v-1729" rx="1" ry="1" stroke="#78a8d8" stroke-width="2" pointer-events="visiblePainted" fill="#85bbf0" width="450" height="300" style="fill: rgb(133, 187, 240); stroke: rgb(120, 168, 216);"></rect><text  id="v-1730" font-size="34" xml:space="preserve" y="0.8em" font-weight="bold" text-anchor="middle" pointer-events="visible" font-family="Open Sans" fill="#000000" transform="matrix(1,0,0,1,225,102.5)" style="fill: rgb(0, 0, 0);"><tspan dy="0" >User Service</tspan></text><text  id="v-1731" font-size="17" xml:space="preserve" y="0.8em" text-anchor="middle" font-family="Open Sans" fill="#000000" transform="matrix(1,0,0,1,225,143.3)" style="fill: rgb(0, 0, 0);"><tspan dy="0" >[Component: Go]</tspan></text><text  id="v-1732" font-size="24" xml:space="preserve" y="0.8em" text-anchor="middle" font-family="Open Sans" fill="#000000" transform="matrix(1,0,0,1,225,173.7)" style="fill: rgb(0, 0, 0);"><tspan dy="0" >Handles user workflows</tspan></text><g  id="v-1733" color="#000000" transform="matrix(1,0,0,1,222.5,268)" display="none" style="fill: rgb(0, 0, 0);"><g ></g><g ></g><g ></g><g ></g></g><image  id="v-1734"></image></g></g><!--z-index:57--><g   id="j_167"  transform="translate(2458,1403)" style=""><g  id="v-1735" style="opacity: 1;"><rect  id="v-1736" rx="1" ry="1" stroke="#78a8d8" stroke-width="2" pointer-events="visiblePainted" fill="#85bbf0" width="450" height="300" style="fill: rgb(133, 187, 240); stroke: rgb(120, 168, 216);"></rect><text  id="v-1737" font-size="34" xml:space="preserve" y="0.8em" font-weight="bold" text-anchor="middle" pointer-events="visible" font-family="Open Sans" fill="#000000" transform="matrix(1,0,0,1,225,102.5)" style="fill: rgb(0, 0, 0);"><tspan dy="0" >...</tspan></text><text  id="v-1738" font-size="17" xml:space="preserve" y="0.8em" text-anchor="middle" font-family="Open Sans" fill="#000000" transform="matrix(1,0,0,1,225,143.3)" style="fill: rgb(0, 0, 0);"><tspan dy="0" >[Component: Go]</tspan></text><text  id="v-1739" font-size="24" xml:space="preserve" y="0.8em" text-anchor="middle" font-family="Open Sans" fill="#000000" transform="matrix(1,0,0,1,225,173.7)" style="fill: rgb(0, 0, 0);"><tspan dy="0" >Other backend services</tspan></text><g  id="v-1740" color="#000000" transform="matrix(1,0,0,1,222.5,268)" display="none" style="fill: rgb(0, 0, 0);"><g ></g><g ></g><g ></g><g ></g></g><image  id="v-1741"></image></g></g><!--z-index:58--><g   id="j_168"  transform="translate(1708,729)" style=""><g  id="v-1745" style="opacity: 1;"><rect  id="v-1746" rx="1" ry="1" stroke="#78a8d8" stroke-width="2" pointer-events="visiblePainted" fill="#85bbf0" width="450" height="300" style="fill: rgb(133, 187, 240); stroke: rgb(120, 168, 216);"></rect><text  id="v-1747" font-size="34" xml:space="preserve" y="0.8em" font-weight="bold" text-anchor="middle" pointer-events="visible" font-family="Open Sans" fill="#000000" transform="matrix(1,0,0,1,225,82.1)" style="fill: rgb(0, 0, 0);"><tspan dy="0" >HTTP Handlers for web</tspan><tspan dy="1.2em" x="0" >frontend</tspan></text><text  id="v-1748" font-size="17" xml:space="preserve" y="0.8em" text-anchor="middle" font-family="Open Sans" fill="#000000" transform="matrix(1,0,0,1,225,163.7)" style="fill: rgb(0, 0, 0);"><tspan dy="0" >[Component: Go]</tspan></text><text  id="v-1749" font-size="24" xml:space="preserve" y="0.8em" text-anchor="middle" font-family="Open Sans" fill="#000000" transform="matrix(1,0,0,1,225,194.1)" style="fill: rgb(0, 0, 0);"><tspan dy="0" >Handles REST endpoints</tspan></text><g  id="v-1750" color="#000000" transform="matrix(1,0,0,1,222.5,268)" display="none" style="fill: rgb(0, 0, 0);"><g ></g><g ></g><g ></g><g ></g></g><image  id="v-1751"></image></g></g><!--z-index:59--><g   id="j_170"  transform="translate(1708,1346)" style=""><g  id="v-1760" style="opacity: 1;"><rect  id="v-1761" rx="1" ry="1" stroke="#78a8d8" stroke-width="2" pointer-events="visiblePainted" fill="#85bbf0" width="450" height="300" style="fill: rgb(133, 187, 240); stroke: rgb(120, 168, 216);"></rect><text  id="v-1762" font-size="34" xml:space="preserve" y="0.8em" font-weight="bold" text-anchor="middle" pointer-events="visible" font-family="Open Sans" fill="#000000" transform="matrix(1,0,0,1,225,82.1)" style="fill: rgb(0, 0, 0);"><tspan dy="0" >HTTP Handlers for UCL</tspan><tspan dy="1.2em" x="0" >TRE's</tspan></text><text  id="v-1763" font-size="17" xml:space="preserve" y="0.8em" text-anchor="middle" font-family="Open Sans" fill="#000000" transform="matrix(1,0,0,1,225,163.7)" style="fill: rgb(0, 0, 0);"><tspan dy="0" >[Component: Go]</tspan></text><text  id="v-1764" font-size="24" xml:space="preserve" y="0.8em" text-anchor="middle" font-family="Open Sans" fill="#000000" transform="matrix(1,0,0,1,225,194.1)" style="fill: rgb(0, 0, 0);"><tspan dy="0" >Handles REST endpoints</tspan></text><g  id="v-1765" color="#000000" transform="matrix(1,0,0,1,222.5,268)" display="none" style="fill: rgb(0, 0, 0);"><g ></g><g ></g><g ></g><g ></g></g><image  id="v-1766"></image></g></g><!--z-index:60--><g   id="j_172"  transform="translate(958,733)" style=""><g  id="v-1778" style="opacity: 1;"><rect  id="v-1779" rx="1" ry="1" stroke="#3c7fc0" stroke-width="2" pointer-events="visiblePainted" fill="#438dd5" width="450" height="300" style="fill: rgb(67, 141, 213); stroke: rgb(60, 127, 192);"></rect><text  id="v-1780" font-size="34" xml:space="preserve" y="0.8em" font-weight="bold" text-anchor="middle" pointer-events="visible" font-family="Open Sans" fill="#ffffff" transform="matrix(1,0,0,1,225,88.1)" style="fill: rgb(255, 255, 255);"><tspan dy="0" >OAuth2 Proxy</tspan></text><text  id="v-1781" font-size="17" xml:space="preserve" y="0.8em" text-anchor="middle" font-family="Open Sans" fill="#ffffff" transform="matrix(1,0,0,1,225,128.9)" style="fill: rgb(255, 255, 255);"><tspan dy="0" >[Container: quay.io/oauth2-proxy/oauth2-proxy]</tspan></text><text  id="v-1782" font-size="24" xml:space="preserve" y="0.8em" text-anchor="middle" font-family="Open Sans" fill="#ffffff" transform="matrix(1,0,0,1,225,159.3)" style="fill: rgb(255, 255, 255);"><tspan dy="0" >Proxy providing OAuth2</tspan><tspan dy="1.2em" x="0" >authentication</tspan></text><g  id="v-1783" color="#ffffff" transform="matrix(1,0,0,1,222.5,268)" display="none" style="fill: rgb(255, 255, 255);"><g ></g><g ></g><g ></g><g ></g></g><image  id="v-1784"></image></g></g><!--z-index:61--><g   id="j_173"  transform="translate(130,1045)" style=""><g  id="v-1788" style="opacity: 1;"><rect  id="v-1789" rx="1" ry="1" stroke="#3c7fc0" stroke-width="2" pointer-events="visiblePainted" fill="#438dd5" width="450" height="300" style="fill: rgb(67, 141, 213); stroke: rgb(60, 127, 192);"></rect><text  id="v-1790" font-size="34" xml:space="preserve" y="0.8em" font-weight="bold" text-anchor="middle" pointer-events="visible" font-family="Open Sans" fill="#ffffff" transform="matrix(1,0,0,1,225,88.1)" style="fill: rgb(255, 255, 255);"><tspan dy="0" >Reverse Proxy</tspan></text><text  id="v-1791" font-size="17" xml:space="preserve" y="0.8em" text-anchor="middle" font-family="Open Sans" fill="#ffffff" transform="matrix(1,0,0,1,225,128.9)" style="fill: rgb(255, 255, 255);"><tspan dy="0" >[Container: nginx]</tspan></text><text  id="v-1792" font-size="24" xml:space="preserve" y="0.8em" text-anchor="middle" font-family="Open Sans" fill="#ffffff" transform="matrix(1,0,0,1,225,159.3)" style="fill: rgb(255, 255, 255);"><tspan dy="0" >Routes requests to frontend and</tspan><tspan dy="1.2em" x="0" >backend</tspan></text><g  id="v-1793" color="#ffffff" transform="matrix(1,0,0,1,222.5,268)" display="none" style="fill: rgb(255, 255, 255);"><g ></g><g ></g><g ></g><g ></g></g><image  id="v-1794"></image></g></g><!--z-index:62--><g   id="j_174"  transform="translate(3195,938)" style=""><g  id="v-1798" style="opacity: 1;"><rect  id="v-1799" rx="1" ry="1" stroke="#3c7fc0" stroke-width="2" pointer-events="visiblePainted" fill="#438dd5" width="450" height="300" style="fill: rgb(67, 141, 213); stroke: rgb(60, 127, 192);"></rect><text  id="v-1800" font-size="34" xml:space="preserve" y="0.8em" font-weight="bold" text-anchor="middle" pointer-events="visible" font-family="Open Sans" fill="#ffffff" transform="matrix(1,0,0,1,225,102.5)" style="fill: rgb(255, 255, 255);"><tspan dy="0" >Database</tspan></text><text  id="v-1801" font-size="17" xml:space="preserve" y="0.8em" text-anchor="middle" font-family="Open Sans" fill="#ffffff" transform="matrix(1,0,0,1,225,143.3)" style="fill: rgb(255, 255, 255);"><tspan dy="0" >[Container: PostgreSQL]</tspan></text><text  id="v-1802" font-size="24" xml:space="preserve" y="0.8em" text-anchor="middle" font-family="Open Sans" fill="#ffffff" transform="matrix(1,0,0,1,225,173.7)" style="fill: rgb(255, 255, 255);"><tspan dy="0" >Stores user, project, portal etc. data</tspan></text><g  id="v-1803" color="#ffffff" transform="matrix(1,0,0,1,222.5,268)" display="none" style="fill: rgb(255, 255, 255);"><g ></g><g ></g><g ></g><g ></g></g><image  id="v-1804"></image></g></g><!--z-index:63--><g   id="j_175" ><path  stroke="#707070" d="M 2158 802 L 2458 700" id="v-1814" stroke-width="2" stroke-dasharray="30 30" fill="none" style="opacity: 1;"></path><path  fill="black" stroke="black" d="M 0 0 0 0" transform="matrix(0.9463874238740795,-0.32303381236796785,0.32303381236796785,0.9463874238740795,2158,802.2000122070312)"></path><path  fill="#707070" stroke="#707070" d="M 20 0 L 0 10 L 20 20 z" id="v-1816" transform="matrix(-0.946387509903154,0.3230335603297398,-0.3230335603297398,-0.946387509903154,2461.2303435148287,709.2638739683905)" style="opacity: 1;"></path><path  d="M 2158 802 L 2458 700" id="v-1815" fill="none" style="cursor: default;"></path><g ><g id="v-1808"  label-idx="0" cursor="move" transform="matrix(1,0,0,1,2308,751)" style="cursor: default; opacity: 1;"><rect joint-selector="rect" id="v-1811" fill="#ffffff" rx="3" ry="3" pointer-events="none" width="52.840545654296875" height="30.717300415039062" transform="matrix(1,0,0,1,-26,-15.4)"></rect><text joint-selector="text" id="v-1810" font-size="24px" xml:space="preserve" y="0.8em" fill="#707070" text-anchor="middle" pointer-events="none" font-family="Open Sans" font-weight="normal" transform="matrix(1,0,0,1,0,-10)"><tspan dy="0" >Calls</tspan></text></g><g id="v-1809"  label-idx="1" cursor="move" transform="matrix(1,0,0,1,2298,777.4000244140625)" style="cursor: default; opacity: 1;"><rect joint-selector="rect" id="v-1813" fill="#ffffff" rx="3" ry="3"  width="0" height="0" transform="matrix(1,0,0,1,0,0)" display="none"></rect><text joint-selector="text" id="v-1812" fill="#000000" font-size="14" text-anchor="middle" pointer-events="none"></text></g></g><g  display="none"></g><g  id="v-1818" display="none"><g  id="v-1806"><path  end="source" d="M 26 0 L 0 13 L 26 26 z"></path></g><g  id="v-1807"><path  end="target" d="M 26 0 L 0 13 L 26 26 z"></path></g></g><g  id="v-1817" display="none"><g  id="v-1805" transform="translate(2195.8709097927886, 789.1238906704518) "><g  event="remove"><circle r="11"></circle><path transform="scale(.8) translate(-16, -16)" d="M24.778,21.419 19.276,15.917 24.777,10.415 21.949,7.585 16.447,13.087 10.945,7.585 8.117,10.415 13.618,15.917 8.116,21.419 10.946,24.248 16.447,18.746 21.948,24.248z"></path><title>Remove link.</title></g><g  event="link:options"><circle r="11" transform="translate(25)"></circle><path fill="white" transform="scale(.55) translate(29, -16)" d="M31.229,17.736c0.064-0.571,0.104-1.148,0.104-1.736s-0.04-1.166-0.104-1.737l-4.377-1.557c-0.218-0.716-0.504-1.401-0.851-2.05l1.993-4.192c-0.725-0.91-1.549-1.734-2.458-2.459l-4.193,1.994c-0.647-0.347-1.334-0.632-2.049-0.849l-1.558-4.378C17.165,0.708,16.588,0.667,16,0.667s-1.166,0.041-1.737,0.105L12.707,5.15c-0.716,0.217-1.401,0.502-2.05,0.849L6.464,4.005C5.554,4.73,4.73,5.554,4.005,6.464l1.994,4.192c-0.347,0.648-0.632,1.334-0.849,2.05l-4.378,1.557C0.708,14.834,0.667,15.412,0.667,16s0.041,1.165,0.105,1.736l4.378,1.558c0.217,0.715,0.502,1.401,0.849,2.049l-1.994,4.193c0.725,0.909,1.549,1.733,2.459,2.458l4.192-1.993c0.648,0.347,1.334,0.633,2.05,0.851l1.557,4.377c0.571,0.064,1.148,0.104,1.737,0.104c0.588,0,1.165-0.04,1.736-0.104l1.558-4.377c0.715-0.218,1.399-0.504,2.049-0.851l4.193,1.993c0.909-0.725,1.733-1.549,2.458-2.458l-1.993-4.193c0.347-0.647,0.633-1.334,0.851-2.049L31.229,17.736zM16,20.871c-2.69,0-4.872-2.182-4.872-4.871c0-2.69,2.182-4.872,4.872-4.872c2.689,0,4.871,2.182,4.871,4.872C20.871,18.689,18.689,20.871,16,20.871z"></path><title>Link options.</title></g></g></g></g><!--z-index:64--><g   id="j_176" ><path  stroke="#707070" d="M 2158 942 L 2458 1025" id="v-1828" stroke-width="2" stroke-dasharray="30 30" fill="none" style="opacity: 1;"></path><path  fill="black" stroke="black" d="M 0 0 0 0" transform="matrix(0.9632967682892258,0.2684387010167006,-0.2684387010167006,0.9632967682892258,2158,941.7000122070312)"></path><path  fill="#707070" stroke="#707070" d="M 20 0 L 0 10 L 20 20 z" id="v-1830" transform="matrix(-0.9632967727573226,-0.2684386849828599,0.2684386849828599,-0.9632967727573226,2455.3155242371195,1034.9329551633393)" style="opacity: 1;"></path><path  d="M 2158 942 L 2458 1025" id="v-1829" fill="none" style="cursor: default;"></path><g ><g id="v-1822"  label-idx="0" cursor="move" transform="matrix(1,0,0,1,2308,983.5)" style="cursor: default; opacity: 1;"><rect joint-selector="rect" id="v-1825" fill="#ffffff" rx="3" ry="3" pointer-events="none" width="52.840545654296875" height="30.717300415039062" transform="matrix(1,0,0,1,-26,-15.4)"></rect><text joint-selector="text" id="v-1824" font-size="24px" xml:space="preserve" y="0.8em" fill="#707070" text-anchor="middle" pointer-events="none" font-family="Open Sans" font-weight="normal" transform="matrix(1,0,0,1,0,-10)"><tspan dy="0" >Calls</tspan></text></g><g id="v-1823"  label-idx="1" cursor="move" transform="matrix(1,0,0,1,2298,1009.9000244140625)" style="cursor: default; opacity: 1;"><rect joint-selector="rect" id="v-1827" fill="#ffffff" rx="3" ry="3"  width="0" height="0" transform="matrix(1,0,0,1,0,0)" display="none"></rect><text joint-selector="text" id="v-1826" fill="#000000" font-size="14" text-anchor="middle" pointer-events="none"></text></g></g><g  display="none"></g><g  id="v-1832" display="none"><g  id="v-1820"><path  end="source" d="M 26 0 L 0 13 L 26 26 z"></path></g><g  id="v-1821"><path  end="target" d="M 26 0 L 0 13 L 26 26 z"></path></g></g><g  id="v-1831" display="none"><g  id="v-1819" transform="translate(2196.5517422136804, 952.6659820124515) "><g  event="remove"><circle r="11"></circle><path transform="scale(.8) translate(-16, -16)" d="M24.778,21.419 19.276,15.917 24.777,10.415 21.949,7.585 16.447,13.087 10.945,7.585 8.117,10.415 13.618,15.917 8.116,21.419 10.946,24.248 16.447,18.746 21.948,24.248z"></path><title>Remove link.</title></g><g  event="link:options"><circle r="11" transform="translate(25)"></circle><path fill="white" transform="scale(.55) translate(29, -16)" d="M31.229,17.736c0.064-0.571,0.104-1.148,0.104-1.736s-0.04-1.166-0.104-1.737l-4.377-1.557c-0.218-0.716-0.504-1.401-0.851-2.05l1.993-4.192c-0.725-0.91-1.549-1.734-2.458-2.459l-4.193,1.994c-0.647-0.347-1.334-0.632-2.049-0.849l-1.558-4.378C17.165,0.708,16.588,0.667,16,0.667s-1.166,0.041-1.737,0.105L12.707,5.15c-0.716,0.217-1.401,0.502-2.05,0.849L6.464,4.005C5.554,4.73,4.73,5.554,4.005,6.464l1.994,4.192c-0.347,0.648-0.632,1.334-0.849,2.05l-4.378,1.557C0.708,14.834,0.667,15.412,0.667,16s0.041,1.165,0.105,1.736l4.378,1.558c0.217,0.715,0.502,1.401,0.849,2.049l-1.994,4.193c0.725,0.909,1.549,1.733,2.459,2.458l4.192-1.993c0.648,0.347,1.334,0.633,2.05,0.851l1.557,4.377c0.571,0.064,1.148,0.104,1.737,0.104c0.588,0,1.165-0.04,1.736-0.104l1.558-4.377c0.715-0.218,1.399-0.504,2.049-0.851l4.193,1.993c0.909-0.725,1.733-1.549,2.458-2.458l-1.993-4.193c0.347-0.647,0.633-1.334,0.851-2.049L31.229,17.736zM16,20.871c-2.69,0-4.872-2.182-4.872-4.871c0-2.69,2.182-4.872,4.872-4.872c2.689,0,4.871,2.182,4.871,4.872C20.871,18.689,18.689,20.871,16,20.871z"></path><title>Link options.</title></g></g></g></g><!--z-index:65--><g   id="j_177" ><path  stroke="#707070" d="M 2100 1029 L 2516 1403" id="v-1842" stroke-width="2" stroke-dasharray="30 30" fill="none" style="opacity: 1;"></path><path  fill="black" stroke="black" d="M 0 0 0 0" transform="matrix(0.7437933476574239,0.6684096468338578,-0.6684096468338578,0.7437933476574239,2099.909912109375,1029)"></path><path  fill="#707070" stroke="#707070" d="M 20 0 L 0 10 L 20 20 z" id="v-1844" transform="matrix(-0.7437933031553581,-0.668409696354894,0.668409696354894,-0.7437933031553581,2509.4059356773796,1410.4379479638526)" style="opacity: 1;"></path><path  d="M 2100 1029 L 2516 1403" id="v-1843" fill="none" style="cursor: default;"></path><g ><g id="v-1836"  label-idx="0" cursor="move" transform="matrix(1,0,0,1,2308,1216)" style="cursor: default; opacity: 1;"><rect joint-selector="rect" id="v-1839" fill="#ffffff" rx="3" ry="3" pointer-events="none" width="52.840545654296875" height="30.717300415039062" transform="matrix(1,0,0,1,-26,-15.4)"></rect><text joint-selector="text" id="v-1838" font-size="24px" xml:space="preserve" y="0.8em" fill="#707070" text-anchor="middle" pointer-events="none" font-family="Open Sans" font-weight="normal" transform="matrix(1,0,0,1,0,-10)"><tspan dy="0" >Calls</tspan></text></g><g id="v-1837"  label-idx="1" cursor="move" transform="matrix(1,0,0,1,2298,1242.4000244140625)" style="cursor: default; opacity: 1;"><rect joint-selector="rect" id="v-1841" fill="#ffffff" rx="3" ry="3"  width="0" height="0" transform="matrix(1,0,0,1,0,0)" display="none"></rect><text joint-selector="text" id="v-1840" fill="#000000" font-size="14" text-anchor="middle" pointer-events="none"></text></g></g><g  display="none"></g><g  id="v-1846" display="none"><g  id="v-1834"><path  end="source" d="M 26 0 L 0 13 L 26 26 z"></path></g><g  id="v-1835"><path  end="target" d="M 26 0 L 0 13 L 26 26 z"></path></g></g><g  id="v-1845" display="none"><g  id="v-1833" transform="translate(2129.745983593393, 1055.7427833267523) "><g  event="remove"><circle r="11"></circle><path transform="scale(.8) translate(-16, -16)" d="M24.778,21.419 19.276,15.917 24.777,10.415 21.949,7.585 16.447,13.087 10.945,7.585 8.117,10.415 13.618,15.917 8.116,21.419 10.946,24.248 16.447,18.746 21.948,24.248z"></path><title>Remove link.</title></g><g  event="link:options"><circle r="11" transform="translate(25)"></circle><path fill="white" transform="scale(.55) translate(29, -16)" d="M31.229,17.736c0.064-0.571,0.104-1.148,0.104-1.736s-0.04-1.166-0.104-1.737l-4.377-1.557c-0.218-0.716-0.504-1.401-0.851-2.05l1.993-4.192c-0.725-0.91-1.549-1.734-2.458-2.459l-4.193,1.994c-0.647-0.347-1.334-0.632-2.049-0.849l-1.558-4.378C17.165,0.708,16.588,0.667,16,0.667s-1.166,0.041-1.737,0.105L12.707,5.15c-0.716,0.217-1.401,0.502-2.05,0.849L6.464,4.005C5.554,4.73,4.73,5.554,4.005,6.464l1.994,4.192c-0.347,0.648-0.632,1.334-0.849,2.05l-4.378,1.557C0.708,14.834,0.667,15.412,0.667,16s0.041,1.165,0.105,1.736l4.378,1.558c0.217,0.715,0.502,1.401,0.849,2.049l-1.994,4.193c0.725,0.909,1.549,1.733,2.459,2.458l4.192-1.993c0.648,0.347,1.334,0.633,2.05,0.851l1.557,4.377c0.571,0.064,1.148,0.104,1.737,0.104c0.588,0,1.165-0.04,1.736-0.104l1.558-4.377c0.715-0.218,1.399-0.504,2.049-0.851l4.193,1.993c0.909-0.725,1.733-1.549,2.458-2.458l-1.993-4.193c0.347-0.647,0.633-1.334,0.851-2.049L31.229,17.736zM16,20.871c-2.69,0-4.872-2.182-4.872-4.871c0-2.69,2.182-4.872,4.872-4.872c2.689,0,4.871,2.182,4.871,4.872C20.871,18.689,18.689,20.871,16,20.871z"></path><title>Link options.</title></g></g></g></g><!--z-index:66--><g   id="j_178" ><path  stroke="#707070" d="M 2062 1346 L 2554 773" id="v-1856" stroke-width="2" stroke-dasharray="30 30" fill="none" style="opacity: 1;"></path><path  fill="black" stroke="black" d="M 0 0 0 0" transform="matrix(0.6516433577446447,-0.7585255001035134,0.7585255001035134,0.6516433577446447,2061.8701171875,1346)"></path><path  fill="#707070" stroke="#707070" d="M 20 0 L 0 10 L 20 20 z" id="v-1858" transform="matrix(-0.6516435597521816,0.7585253265603628,-0.7585253265603628,-0.6516435597521816,2561.7152142537507,779.5164484451996)" style="opacity: 1;"></path><path  d="M 2062 1346 L 2554 773" id="v-1857" fill="none" style="cursor: default;"></path><g ><g id="v-1850"  label-idx="0" cursor="move" transform="matrix(1,0,0,1,2308,1059.5)" style="cursor: default; opacity: 1;"><rect joint-selector="rect" id="v-1853" fill="#ffffff" rx="3" ry="3" pointer-events="none" width="52.840545654296875" height="30.717300415039062" transform="matrix(1,0,0,1,-26,-15.4)"></rect><text joint-selector="text" id="v-1852" font-size="24px" xml:space="preserve" y="0.8em" fill="#707070" text-anchor="middle" pointer-events="none" font-family="Open Sans" font-weight="normal" transform="matrix(1,0,0,1,0,-10)"><tspan dy="0" >Calls</tspan></text></g><g id="v-1851"  label-idx="1" cursor="move" transform="matrix(1,0,0,1,2298,1085.9000244140625)" style="cursor: default; opacity: 1;"><rect joint-selector="rect" id="v-1855" fill="#ffffff" rx="3" ry="3"  width="0" height="0" transform="matrix(1,0,0,1,0,0)" display="none"></rect><text joint-selector="text" id="v-1854" fill="#000000" font-size="14" text-anchor="middle" pointer-events="none"></text></g></g><g  display="none"></g><g  id="v-1860" display="none"><g  id="v-1848"><path  end="source" d="M 26 0 L 0 13 L 26 26 z"></path></g><g  id="v-1849"><path  end="target" d="M 26 0 L 0 13 L 26 26 z"></path></g></g><g  id="v-1859" display="none"><g  id="v-1847" transform="translate(2088.0578152459675, 1315.652178585489) "><g  event="remove"><circle r="11"></circle><path transform="scale(.8) translate(-16, -16)" d="M24.778,21.419 19.276,15.917 24.777,10.415 21.949,7.585 16.447,13.087 10.945,7.585 8.117,10.415 13.618,15.917 8.116,21.419 10.946,24.248 16.447,18.746 21.948,24.248z"></path><title>Remove link.</title></g><g  event="link:options"><circle r="11" transform="translate(25)"></circle><path fill="white" transform="scale(.55) translate(29, -16)" d="M31.229,17.736c0.064-0.571,0.104-1.148,0.104-1.736s-0.04-1.166-0.104-1.737l-4.377-1.557c-0.218-0.716-0.504-1.401-0.851-2.05l1.993-4.192c-0.725-0.91-1.549-1.734-2.458-2.459l-4.193,1.994c-0.647-0.347-1.334-0.632-2.049-0.849l-1.558-4.378C17.165,0.708,16.588,0.667,16,0.667s-1.166,0.041-1.737,0.105L12.707,5.15c-0.716,0.217-1.401,0.502-2.05,0.849L6.464,4.005C5.554,4.73,4.73,5.554,4.005,6.464l1.994,4.192c-0.347,0.648-0.632,1.334-0.849,2.05l-4.378,1.557C0.708,14.834,0.667,15.412,0.667,16s0.041,1.165,0.105,1.736l4.378,1.558c0.217,0.715,0.502,1.401,0.849,2.049l-1.994,4.193c0.725,0.909,1.549,1.733,2.459,2.458l4.192-1.993c0.648,0.347,1.334,0.633,2.05,0.851l1.557,4.377c0.571,0.064,1.148,0.104,1.737,0.104c0.588,0,1.165-0.04,1.736-0.104l1.558-4.377c0.715-0.218,1.399-0.504,2.049-0.851l4.193,1.993c0.909-0.725,1.733-1.549,2.458-2.458l-1.993-4.193c0.347-0.647,0.633-1.334,0.851-2.049L31.229,17.736zM16,20.871c-2.69,0-4.872-2.182-4.872-4.871c0-2.69,2.182-4.872,4.872-4.872c2.689,0,4.871,2.182,4.871,4.872C20.871,18.689,18.689,20.871,16,20.871z"></path><title>Link options.</title></g></g></g></g><!--z-index:67--><g   id="j_179" ><path  stroke="#707070" d="M 2158 1374 L 2458 1210" id="v-1870" stroke-width="2" stroke-dasharray="30 30" fill="none" style="opacity: 1;"></path><path  fill="black" stroke="black" d="M 0 0 0 0" transform="matrix(0.8784320436659591,-0.47786728770742054,0.47786728770742054,0.8784320436659591,2158,1373.5999755859375)"></path><path  fill="#707070" stroke="#707070" d="M 20 0 L 0 10 L 20 20 z" id="v-1872" transform="matrix(-0.8784321709296847,0.47786705376679944,-0.47786705376679944,-0.8784321709296847,2462.7785684188398,1219.1843621091289)" style="opacity: 1;"></path><path  d="M 2158 1374 L 2458 1210" id="v-1871" fill="none" style="cursor: default;"></path><g ><g id="v-1864"  label-idx="0" cursor="move" transform="matrix(1,0,0,1,2308,1292)" style="cursor: default; opacity: 1;"><rect joint-selector="rect" id="v-1867" fill="#ffffff" rx="3" ry="3" pointer-events="none" width="52.840545654296875" height="30.717300415039062" transform="matrix(1,0,0,1,-26,-15.4)"></rect><text joint-selector="text" id="v-1866" font-size="24px" xml:space="preserve" y="0.8em" fill="#707070" text-anchor="middle" pointer-events="none" font-family="Open Sans" font-weight="normal" transform="matrix(1,0,0,1,0,-10)"><tspan dy="0" >Calls</tspan></text></g><g id="v-1865"  label-idx="1" cursor="move" transform="matrix(1,0,0,1,2298,1318.4000244140625)" style="cursor: default; opacity: 1;"><rect joint-selector="rect" id="v-1869" fill="#ffffff" rx="3" ry="3"  width="0" height="0" transform="matrix(1,0,0,1,0,0)" display="none"></rect><text joint-selector="text" id="v-1868" fill="#000000" font-size="14" text-anchor="middle" pointer-events="none"></text></g></g><g  display="none"></g><g  id="v-1874" display="none"><g  id="v-1862"><path  end="source" d="M 26 0 L 0 13 L 26 26 z"></path></g><g  id="v-1863"><path  end="target" d="M 26 0 L 0 13 L 26 26 z"></path></g></g><g  id="v-1873" display="none"><g  id="v-1861" transform="translate(2193.0979233173143, 1354.8131352532016) "><g  event="remove"><circle r="11"></circle><path transform="scale(.8) translate(-16, -16)" d="M24.778,21.419 19.276,15.917 24.777,10.415 21.949,7.585 16.447,13.087 10.945,7.585 8.117,10.415 13.618,15.917 8.116,21.419 10.946,24.248 16.447,18.746 21.948,24.248z"></path><title>Remove link.</title></g><g  event="link:options"><circle r="11" transform="translate(25)"></circle><path fill="white" transform="scale(.55) translate(29, -16)" d="M31.229,17.736c0.064-0.571,0.104-1.148,0.104-1.736s-0.04-1.166-0.104-1.737l-4.377-1.557c-0.218-0.716-0.504-1.401-0.851-2.05l1.993-4.192c-0.725-0.91-1.549-1.734-2.458-2.459l-4.193,1.994c-0.647-0.347-1.334-0.632-2.049-0.849l-1.558-4.378C17.165,0.708,16.588,0.667,16,0.667s-1.166,0.041-1.737,0.105L12.707,5.15c-0.716,0.217-1.401,0.502-2.05,0.849L6.464,4.005C5.554,4.73,4.73,5.554,4.005,6.464l1.994,4.192c-0.347,0.648-0.632,1.334-0.849,2.05l-4.378,1.557C0.708,14.834,0.667,15.412,0.667,16s0.041,1.165,0.105,1.736l4.378,1.558c0.217,0.715,0.502,1.401,0.849,2.049l-1.994,4.193c0.725,0.909,1.549,1.733,2.459,2.458l4.192-1.993c0.648,0.347,1.334,0.633,2.05,0.851l1.557,4.377c0.571,0.064,1.148,0.104,1.737,0.104c0.588,0,1.165-0.04,1.736-0.104l1.558-4.377c0.715-0.218,1.399-0.504,2.049-0.851l4.193,1.993c0.909-0.725,1.733-1.549,2.458-2.458l-1.993-4.193c0.347-0.647,0.633-1.334,0.851-2.049L31.229,17.736zM16,20.871c-2.69,0-4.872-2.182-4.872-4.871c0-2.69,2.182-4.872,4.872-4.872c2.689,0,4.871,2.182,4.871,4.872C20.871,18.689,18.689,20.871,16,20.871z"></path><title>Link options.</title></g></g></g></g><!--z-index:68--><g   id="j_180" ><path  stroke="#707070" d="M 2158 1513 L 2458 1536" id="v-1884" stroke-width="2" stroke-dasharray="30 30" fill="none" style="opacity: 1;"></path><path  fill="black" stroke="black" d="M 0 0 0 0" transform="matrix(0.9971244511412819,0.07578145509422085,-0.07578145509422085,0.9971244511412819,2158,1513.0999755859375)"></path><path  fill="#707070" stroke="#707070" d="M 20 0 L 0 10 L 20 20 z" id="v-1886" transform="matrix(-0.9971244429424108,-0.07578156297403149,0.07578156297403149,-0.9971244429424108,2457.2422373934337,1545.871271973227)" style="opacity: 1;"></path><path  d="M 2158 1513 L 2458 1536" id="v-1885" fill="none" style="cursor: default;"></path><g ><g id="v-1878"  label-idx="0" cursor="move" transform="matrix(1,0,0,1,2308,1524.5)" style="cursor: default; opacity: 1;"><rect joint-selector="rect" id="v-1881" fill="#ffffff" rx="3" ry="3" pointer-events="none" width="52.840545654296875" height="30.717300415039062" transform="matrix(1,0,0,1,-26,-15.4)"></rect><text joint-selector="text" id="v-1880" font-size="24px" xml:space="preserve" y="0.8em" fill="#707070" text-anchor="middle" pointer-events="none" font-family="Open Sans" font-weight="normal" transform="matrix(1,0,0,1,0,-10)"><tspan dy="0" >Calls</tspan></text></g><g id="v-1879"  label-idx="1" cursor="move" transform="matrix(1,0,0,1,2298,1550.9000244140625)" style="cursor: default; opacity: 1;"><rect joint-selector="rect" id="v-1883" fill="#ffffff" rx="3" ry="3"  width="0" height="0" transform="matrix(1,0,0,1,0,0)" display="none"></rect><text joint-selector="text" id="v-1882" fill="#000000" font-size="14" text-anchor="middle" pointer-events="none"></text></g></g><g  display="none"></g><g  id="v-1888" display="none"><g  id="v-1876"><path  end="source" d="M 26 0 L 0 13 L 26 26 z"></path></g><g  id="v-1877"><path  end="target" d="M 26 0 L 0 13 L 26 26 z"></path></g></g><g  id="v-1887" display="none"><g  id="v-1875" transform="translate(2197.882960143166, 1516.0576936109762) "><g  event="remove"><circle r="11"></circle><path transform="scale(.8) translate(-16, -16)" d="M24.778,21.419 19.276,15.917 24.777,10.415 21.949,7.585 16.447,13.087 10.945,7.585 8.117,10.415 13.618,15.917 8.116,21.419 10.946,24.248 16.447,18.746 21.948,24.248z"></path><title>Remove link.</title></g><g  event="link:options"><circle r="11" transform="translate(25)"></circle><path fill="white" transform="scale(.55) translate(29, -16)" d="M31.229,17.736c0.064-0.571,0.104-1.148,0.104-1.736s-0.04-1.166-0.104-1.737l-4.377-1.557c-0.218-0.716-0.504-1.401-0.851-2.05l1.993-4.192c-0.725-0.91-1.549-1.734-2.458-2.459l-4.193,1.994c-0.647-0.347-1.334-0.632-2.049-0.849l-1.558-4.378C17.165,0.708,16.588,0.667,16,0.667s-1.166,0.041-1.737,0.105L12.707,5.15c-0.716,0.217-1.401,0.502-2.05,0.849L6.464,4.005C5.554,4.73,4.73,5.554,4.005,6.464l1.994,4.192c-0.347,0.648-0.632,1.334-0.849,2.05l-4.378,1.557C0.708,14.834,0.667,15.412,0.667,16s0.041,1.165,0.105,1.736l4.378,1.558c0.217,0.715,0.502,1.401,0.849,2.049l-1.994,4.193c0.725,0.909,1.549,1.733,2.459,2.458l4.192-1.993c0.648,0.347,1.334,0.633,2.05,0.851l1.557,4.377c0.571,0.064,1.148,0.104,1.737,0.104c0.588,0,1.165-0.04,1.736-0.104l1.558-4.377c0.715-0.218,1.399-0.504,2.049-0.851l4.193,1.993c0.909-0.725,1.733-1.549,2.458-2.458l-1.993-4.193c0.347-0.647,0.633-1.334,0.851-2.049L31.229,17.736zM16,20.871c-2.69,0-4.872-2.182-4.872-4.871c0-2.69,2.182-4.872,4.872-4.872c2.689,0,4.871,2.182,4.871,4.872C20.871,18.689,18.689,20.871,16,20.871z"></path><title>Link options.</title></g></g></g></g><!--z-index:69--><g   id="j_181" ><path  stroke="#707070" d="M 2908 1088 L 3195 1088" id="v-1901" stroke-width="2" stroke-dasharray="30 30" fill="none" style="opacity: 1;"></path><path  fill="black" stroke="black" d="M 0 0 0 0" transform="matrix(1,0,0,1,2908,1088)"></path><path  fill="#707070" stroke="#707070" d="M 20 0 L 0 10 L 20 20 z" id="v-1903" transform="matrix(-1,1.2246467991473532e-16,-1.2246467991473532e-16,-1,3195,1098)" style="opacity: 1;"></path><path  d="M 2908 1088 L 3195 1088" id="v-1902" fill="none" style="cursor: default;"></path><g ><g id="v-1895"  label-idx="0" cursor="move" transform="matrix(1,0,0,1,3051.5,1088)" style="cursor: default; opacity: 1;"><rect joint-selector="rect" id="v-1898" fill="#ffffff" rx="3" ry="3" pointer-events="none" width="145.27536010742188" height="59.517303466796875" transform="matrix(1,0,0,1,-72.2,-29.8)"></rect><text joint-selector="text" id="v-1897" font-size="24px" xml:space="preserve" y="0.8em" fill="#707070" text-anchor="middle" pointer-events="none" font-family="Open Sans" font-weight="normal" transform="matrix(1,0,0,1,0,-24.4)"><tspan dy="0" >Reads/writes</tspan><tspan dy="1.2em" x="0" >data</tspan></text></g><g id="v-1896"  label-idx="1" cursor="move" transform="matrix(1,0,0,1,3041.5,1128.800048828125)" style="cursor: default; opacity: 1;"><rect joint-selector="rect" id="v-1900" fill="#ffffff" rx="3" ry="3"  width="0" height="0" transform="matrix(1,0,0,1,0,0)" display="none"></rect><text joint-selector="text" id="v-1899" fill="#000000" font-size="14" text-anchor="middle" pointer-events="none"></text></g></g><g  display="none"></g><g  id="v-1905" display="none"><g  id="v-1893"><path  end="source" d="M 26 0 L 0 13 L 26 26 z"></path></g><g  id="v-1894"><path  end="target" d="M 26 0 L 0 13 L 26 26 z"></path></g></g><g  id="v-1904" display="none"><g  id="v-1892" transform="translate(2948, 1088) "><g  event="remove"><circle r="11"></circle><path transform="scale(.8) translate(-16, -16)" d="M24.778,21.419 19.276,15.917 24.777,10.415 21.949,7.585 16.447,13.087 10.945,7.585 8.117,10.415 13.618,15.917 8.116,21.419 10.946,24.248 16.447,18.746 21.948,24.248z"></path><title>Remove link.</title></g><g  event="link:options"><circle r="11" transform="translate(25)"></circle><path fill="white" transform="scale(.55) translate(29, -16)" d="M31.229,17.736c0.064-0.571,0.104-1.148,0.104-1.736s-0.04-1.166-0.104-1.737l-4.377-1.557c-0.218-0.716-0.504-1.401-0.851-2.05l1.993-4.192c-0.725-0.91-1.549-1.734-2.458-2.459l-4.193,1.994c-0.647-0.347-1.334-0.632-2.049-0.849l-1.558-4.378C17.165,0.708,16.588,0.667,16,0.667s-1.166,0.041-1.737,0.105L12.707,5.15c-0.716,0.217-1.401,0.502-2.05,0.849L6.464,4.005C5.554,4.73,4.73,5.554,4.005,6.464l1.994,4.192c-0.347,0.648-0.632,1.334-0.849,2.05l-4.378,1.557C0.708,14.834,0.667,15.412,0.667,16s0.041,1.165,0.105,1.736l4.378,1.558c0.217,0.715,0.502,1.401,0.849,2.049l-1.994,4.193c0.725,0.909,1.549,1.733,2.459,2.458l4.192-1.993c0.648,0.347,1.334,0.633,2.05,0.851l1.557,4.377c0.571,0.064,1.148,0.104,1.737,0.104c0.588,0,1.165-0.04,1.736-0.104l1.558-4.377c0.715-0.218,1.399-0.504,2.049-0.851l4.193,1.993c0.909-0.725,1.733-1.549,2.458-2.458l-1.993-4.193c0.347-0.647,0.633-1.334,0.851-2.049L31.229,17.736zM16,20.871c-2.69,0-4.872-2.182-4.872-4.871c0-2.69,2.182-4.872,4.872-4.872c2.689,0,4.871,2.182,4.871,4.872C20.871,18.689,18.689,20.871,16,20.871z"></path><title>Link options.</title></g></g></g></g><!--z-index:70--><g   id="j_182" ><path  stroke="#707070" d="M 2908 765 L 3195 946" id="v-1918" stroke-width="2" stroke-dasharray="30 30" fill="none" style="opacity: 1;"></path><path  fill="black" stroke="black" d="M 0 0 0 0" transform="matrix(0.8457325113059851,0.5336070832738934,-0.5336070832738934,0.8457325113059851,2908,764.9600219726562)"></path><path  fill="#707070" stroke="#707070" d="M 20 0 L 0 10 L 20 20 z" id="v-1920" transform="matrix(-0.845732511305985,-0.5336070832738935,0.5336070832738935,-0.845732511305985,3189.663978889696,954.4973144028302)" style="opacity: 1;"></path><path  d="M 2908 765 L 3195 946" id="v-1919" fill="none" style="cursor: default;"></path><g ><g id="v-1912"  label-idx="0" cursor="move" transform="matrix(1,0,0,1,3051.5,855.5)" style="cursor: default; opacity: 1;"><rect joint-selector="rect" id="v-1915" fill="#ffffff" rx="3" ry="3" pointer-events="none" width="145.27536010742188" height="59.517303466796875" transform="matrix(1,0,0,1,-72.2,-29.8)"></rect><text joint-selector="text" id="v-1914" font-size="24px" xml:space="preserve" y="0.8em" fill="#707070" text-anchor="middle" pointer-events="none" font-family="Open Sans" font-weight="normal" transform="matrix(1,0,0,1,0,-24.4)"><tspan dy="0" >Reads/writes</tspan><tspan dy="1.2em" x="0" >data</tspan></text></g><g id="v-1913"  label-idx="1" cursor="move" transform="matrix(1,0,0,1,3041.5,896.2999877929688)" style="cursor: default; opacity: 1;"><rect joint-selector="rect" id="v-1917" fill="#ffffff" rx="3" ry="3"  width="0" height="0" transform="matrix(1,0,0,1,0,0)" display="none"></rect><text joint-selector="text" id="v-1916" fill="#000000" font-size="14" text-anchor="middle" pointer-events="none"></text></g></g><g  display="none"></g><g  id="v-1922" display="none"><g  id="v-1910"><path  end="source" d="M 26 0 L 0 13 L 26 26 z"></path></g><g  id="v-1911"><path  end="target" d="M 26 0 L 0 13 L 26 26 z"></path></g></g><g  id="v-1921" display="none"><g  id="v-1909" transform="translate(2941.833555220706, 786.3375383099228) "><g  event="remove"><circle r="11"></circle><path transform="scale(.8) translate(-16, -16)" d="M24.778,21.419 19.276,15.917 24.777,10.415 21.949,7.585 16.447,13.087 10.945,7.585 8.117,10.415 13.618,15.917 8.116,21.419 10.946,24.248 16.447,18.746 21.948,24.248z"></path><title>Remove link.</title></g><g  event="link:options"><circle r="11" transform="translate(25)"></circle><path fill="white" transform="scale(.55) translate(29, -16)" d="M31.229,17.736c0.064-0.571,0.104-1.148,0.104-1.736s-0.04-1.166-0.104-1.737l-4.377-1.557c-0.218-0.716-0.504-1.401-0.851-2.05l1.993-4.192c-0.725-0.91-1.549-1.734-2.458-2.459l-4.193,1.994c-0.647-0.347-1.334-0.632-2.049-0.849l-1.558-4.378C17.165,0.708,16.588,0.667,16,0.667s-1.166,0.041-1.737,0.105L12.707,5.15c-0.716,0.217-1.401,0.502-2.05,0.849L6.464,4.005C5.554,4.73,4.73,5.554,4.005,6.464l1.994,4.192c-0.347,0.648-0.632,1.334-0.849,2.05l-4.378,1.557C0.708,14.834,0.667,15.412,0.667,16s0.041,1.165,0.105,1.736l4.378,1.558c0.217,0.715,0.502,1.401,0.849,2.049l-1.994,4.193c0.725,0.909,1.549,1.733,2.459,2.458l4.192-1.993c0.648,0.347,1.334,0.633,2.05,0.851l1.557,4.377c0.571,0.064,1.148,0.104,1.737,0.104c0.588,0,1.165-0.04,1.736-0.104l1.558-4.377c0.715-0.218,1.399-0.504,2.049-0.851l4.193,1.993c0.909-0.725,1.733-1.549,2.458-2.458l-1.993-4.193c0.347-0.647,0.633-1.334,0.851-2.049L31.229,17.736zM16,20.871c-2.69,0-4.872-2.182-4.872-4.871c0-2.69,2.182-4.872,4.872-4.872c2.689,0,4.871,2.182,4.871,4.872C20.871,18.689,18.689,20.871,16,20.871z"></path><title>Link options.</title></g></g></g></g><!--z-index:71--><g   id="j_183" ><path  stroke="#707070" d="M 2908 1411 L 3195 1230" id="v-1935" stroke-width="2" stroke-dasharray="30 30" fill="none" style="opacity: 1;"></path><path  fill="black" stroke="black" d="M 0 0 0 0" transform="matrix(0.8457323691977928,-0.5336073085060663,0.5336073085060663,0.8457323691977928,2908,1411.0400390625)"></path><path  fill="#707070" stroke="#707070" d="M 20 0 L 0 10 L 20 20 z" id="v-1937" transform="matrix(-0.8457325113059851,0.5336070832738933,-0.5336070832738933,-0.8457325113059851,3200.3361205551737,1238.4172747881335)" style="opacity: 1;"></path><path  d="M 2908 1411 L 3195 1230" id="v-1936" fill="none" style="cursor: default;"></path><g ><g id="v-1929"  label-idx="0" cursor="move" transform="matrix(1,0,0,1,3051.5,1320.5)" style="cursor: default; opacity: 1;"><rect joint-selector="rect" id="v-1932" fill="#ffffff" rx="3" ry="3" pointer-events="none" width="191.13809204101562" height="30.717300415039062" transform="matrix(1,0,0,1,-94.6,-15.4)"></rect><text joint-selector="text" id="v-1931" font-size="24px" xml:space="preserve" y="0.8em" fill="#707070" text-anchor="middle" pointer-events="none" font-family="Open Sans" font-weight="normal" transform="matrix(1,0,0,1,0,-10)"><tspan dy="0" >Read/writes data</tspan></text></g><g id="v-1930"  label-idx="1" cursor="move" transform="matrix(1,0,0,1,3041.5,1346.9000244140625)" style="cursor: default; opacity: 1;"><rect joint-selector="rect" id="v-1934" fill="#ffffff" rx="3" ry="3"  width="0" height="0" transform="matrix(1,0,0,1,0,0)" display="none"></rect><text joint-selector="text" id="v-1933" fill="#000000" font-size="14" text-anchor="middle" pointer-events="none"></text></g></g><g  display="none"></g><g  id="v-1939" display="none"><g  id="v-1927"><path  end="source" d="M 26 0 L 0 13 L 26 26 z"></path></g><g  id="v-1928"><path  end="target" d="M 26 0 L 0 13 L 26 26 z"></path></g></g><g  id="v-1938" display="none"><g  id="v-1926" transform="translate(2941.833555220706, 1389.6624616900772) "><g  event="remove"><circle r="11"></circle><path transform="scale(.8) translate(-16, -16)" d="M24.778,21.419 19.276,15.917 24.777,10.415 21.949,7.585 16.447,13.087 10.945,7.585 8.117,10.415 13.618,15.917 8.116,21.419 10.946,24.248 16.447,18.746 21.948,24.248z"></path><title>Remove link.</title></g><g  event="link:options"><circle r="11" transform="translate(25)"></circle><path fill="white" transform="scale(.55) translate(29, -16)" d="M31.229,17.736c0.064-0.571,0.104-1.148,0.104-1.736s-0.04-1.166-0.104-1.737l-4.377-1.557c-0.218-0.716-0.504-1.401-0.851-2.05l1.993-4.192c-0.725-0.91-1.549-1.734-2.458-2.459l-4.193,1.994c-0.647-0.347-1.334-0.632-2.049-0.849l-1.558-4.378C17.165,0.708,16.588,0.667,16,0.667s-1.166,0.041-1.737,0.105L12.707,5.15c-0.716,0.217-1.401,0.502-2.05,0.849L6.464,4.005C5.554,4.73,4.73,5.554,4.005,6.464l1.994,4.192c-0.347,0.648-0.632,1.334-0.849,2.05l-4.378,1.557C0.708,14.834,0.667,15.412,0.667,16s0.041,1.165,0.105,1.736l4.378,1.558c0.217,0.715,0.502,1.401,0.849,2.049l-1.994,4.193c0.725,0.909,1.549,1.733,2.459,2.458l4.192-1.993c0.648,0.347,1.334,0.633,2.05,0.851l1.557,4.377c0.571,0.064,1.148,0.104,1.737,0.104c0.588,0,1.165-0.04,1.736-0.104l1.558-4.377c0.715-0.218,1.399-0.504,2.049-0.851l4.193,1.993c0.909-0.725,1.733-1.549,2.458-2.458l-1.993-4.193c0.347-0.647,0.633-1.334,0.851-2.049L31.229,17.736zM16,20.871c-2.69,0-4.872-2.182-4.872-4.871c0-2.69,2.182-4.872,4.872-4.872c2.689,0,4.871,2.182,4.871,4.872C20.871,18.689,18.689,20.871,16,20.871z"></path><title>Link options.</title></g></g></g></g><!--z-index:72--><g   id="j_184" ><path  stroke="#707070" d="M 580 1238 L 1708 1453" id="v-1952" stroke-width="2" stroke-dasharray="30 30" fill="none" style="opacity: 1;"></path><path  fill="black" stroke="black" d="M 0 0 0 0" transform="matrix(0.9822900570195087,0.187366602895528,-0.187366602895528,0.9822900570195087,580,1237.9200439453125)"></path><path  fill="#707070" stroke="#707070" d="M 20 0 L 0 10 L 20 20 z" id="v-1954" transform="matrix(-0.9822900351888012,-0.18736671734538035,0.18736671734538035,-0.9822900351888012,1706.1263572018718,1462.9028663534668)" style="opacity: 1;"></path><path  d="M 580 1238 L 1708 1453" id="v-1953" fill="none" style="cursor: default;"></path><g ><g id="v-1946"  label-idx="0" cursor="move" transform="matrix(1,0,0,1,1144,1345.5)" style="cursor: default; opacity: 1;"><rect joint-selector="rect" id="v-1949" fill="#ffffff" rx="3" ry="3" pointer-events="none" width="171.98951721191406" height="59.517303466796875" transform="matrix(1,0,0,1,-86,-29.8)"></rect><text joint-selector="text" id="v-1948" font-size="24px" xml:space="preserve" y="0.8em" fill="#707070" text-anchor="middle" pointer-events="none" font-family="Open Sans" font-weight="normal" transform="matrix(1,0,0,1,0,-24.4)"><tspan dy="0" >Proxies /tre/api</tspan><tspan dy="1.2em" x="0" >requests</tspan></text></g><g id="v-1947"  label-idx="1" cursor="move" transform="matrix(1,0,0,1,1134,1386.300048828125)" style="cursor: default; opacity: 1;"><rect joint-selector="rect" id="v-1951" fill="#ffffff" rx="3" ry="3"  width="0" height="0" transform="matrix(1,0,0,1,0,0)" display="none"></rect><text joint-selector="text" id="v-1950" fill="#000000" font-size="14" text-anchor="middle" pointer-events="none"></text></g></g><g  display="none"></g><g  id="v-1956" display="none"><g  id="v-1944"><path  end="source" d="M 26 0 L 0 13 L 26 26 z"></path></g><g  id="v-1945"><path  end="target" d="M 26 0 L 0 13 L 26 26 z"></path></g></g><g  id="v-1955" display="none"><g  id="v-1943" transform="translate(619.2926276880278, 1245.4892863057855) "><g  event="remove"><circle r="11"></circle><path transform="scale(.8) translate(-16, -16)" d="M24.778,21.419 19.276,15.917 24.777,10.415 21.949,7.585 16.447,13.087 10.945,7.585 8.117,10.415 13.618,15.917 8.116,21.419 10.946,24.248 16.447,18.746 21.948,24.248z"></path><title>Remove link.</title></g><g  event="link:options"><circle r="11" transform="translate(25)"></circle><path fill="white" transform="scale(.55) translate(29, -16)" d="M31.229,17.736c0.064-0.571,0.104-1.148,0.104-1.736s-0.04-1.166-0.104-1.737l-4.377-1.557c-0.218-0.716-0.504-1.401-0.851-2.05l1.993-4.192c-0.725-0.91-1.549-1.734-2.458-2.459l-4.193,1.994c-0.647-0.347-1.334-0.632-2.049-0.849l-1.558-4.378C17.165,0.708,16.588,0.667,16,0.667s-1.166,0.041-1.737,0.105L12.707,5.15c-0.716,0.217-1.401,0.502-2.05,0.849L6.464,4.005C5.554,4.73,4.73,5.554,4.005,6.464l1.994,4.192c-0.347,0.648-0.632,1.334-0.849,2.05l-4.378,1.557C0.708,14.834,0.667,15.412,0.667,16s0.041,1.165,0.105,1.736l4.378,1.558c0.217,0.715,0.502,1.401,0.849,2.049l-1.994,4.193c0.725,0.909,1.549,1.733,2.459,2.458l4.192-1.993c0.648,0.347,1.334,0.633,2.05,0.851l1.557,4.377c0.571,0.064,1.148,0.104,1.737,0.104c0.588,0,1.165-0.04,1.736-0.104l1.558-4.377c0.715-0.218,1.399-0.504,2.049-0.851l4.193,1.993c0.909-0.725,1.733-1.549,2.458-2.458l-1.993-4.193c0.347-0.647,0.633-1.334,0.851-2.049L31.229,17.736zM16,20.871c-2.69,0-4.872-2.182-4.872-4.871c0-2.69,2.182-4.872,4.872-4.872c2.689,0,4.871,2.182,4.871,4.872C20.871,18.689,18.689,20.871,16,20.871z"></path><title>Link options.</title></g></g></g></g><!--z-index:73--><g   id="j_185" ><path  stroke="#707070" d="M 580 1110 L 958 968" id="v-1969" stroke-width="2" stroke-dasharray="30 30" fill="none" style="opacity: 1;"></path><path  fill="black" stroke="black" d="M 0 0 0 0" transform="matrix(0.9357664520174874,-0.35262040110946996,0.35262040110946996,0.9357664520174874,580,1110.219970703125)"></path><path  fill="#707070" stroke="#707070" d="M 20 0 L 0 10 L 20 20 z" id="v-1971" transform="matrix(-0.935766358108961,0.352620650319138,-0.352620650319138,-0.935766358108961,961.526204068656,977.1376704568046)" style="opacity: 1;"></path><path  d="M 580 1110 L 958 968" id="v-1970" fill="none" style="cursor: default;"></path><g ><g id="v-1963"  label-idx="0" cursor="move" transform="matrix(1,0,0,1,769,1039)" style="cursor: default; opacity: 1;"><rect joint-selector="rect" id="v-1966" fill="#ffffff" rx="3" ry="3" pointer-events="none" width="186.90139770507812" height="88.31730651855469" transform="matrix(1,0,0,1,-93.4,-44.2)"></rect><text joint-selector="text" id="v-1965" font-size="24px" xml:space="preserve" y="0.8em" fill="#707070" text-anchor="middle" pointer-events="none" font-family="Open Sans" font-weight="normal" transform="matrix(1,0,0,1,0,-38.8)"><tspan dy="0" >Proxies /web/api</tspan><tspan dy="1.2em" x="0" >requests for</tspan><tspan dy="1.2em" x="0" >authentication</tspan></text></g><g id="v-1964"  label-idx="1" cursor="move" transform="matrix(1,0,0,1,759,1094.199951171875)" style="cursor: default; opacity: 1;"><rect joint-selector="rect" id="v-1968" fill="#ffffff" rx="3" ry="3"  width="0" height="0" transform="matrix(1,0,0,1,0,0)" display="none"></rect><text joint-selector="text" id="v-1967" fill="#000000" font-size="14" text-anchor="middle" pointer-events="none"></text></g></g><g  display="none"></g><g  id="v-1973" display="none"><g  id="v-1961"><path  end="source" d="M 26 0 L 0 13 L 26 26 z"></path></g><g  id="v-1962"><path  end="target" d="M 26 0 L 0 13 L 26 26 z"></path></g></g><g  id="v-1972" display="none"><g  id="v-1960" transform="translate(617.4450188179552, 1095.933352719181) "><g  event="remove"><circle r="11"></circle><path transform="scale(.8) translate(-16, -16)" d="M24.778,21.419 19.276,15.917 24.777,10.415 21.949,7.585 16.447,13.087 10.945,7.585 8.117,10.415 13.618,15.917 8.116,21.419 10.946,24.248 16.447,18.746 21.948,24.248z"></path><title>Remove link.</title></g><g  event="link:options"><circle r="11" transform="translate(25)"></circle><path fill="white" transform="scale(.55) translate(29, -16)" d="M31.229,17.736c0.064-0.571,0.104-1.148,0.104-1.736s-0.04-1.166-0.104-1.737l-4.377-1.557c-0.218-0.716-0.504-1.401-0.851-2.05l1.993-4.192c-0.725-0.91-1.549-1.734-2.458-2.459l-4.193,1.994c-0.647-0.347-1.334-0.632-2.049-0.849l-1.558-4.378C17.165,0.708,16.588,0.667,16,0.667s-1.166,0.041-1.737,0.105L12.707,5.15c-0.716,0.217-1.401,0.502-2.05,0.849L6.464,4.005C5.554,4.73,4.73,5.554,4.005,6.464l1.994,4.192c-0.347,0.648-0.632,1.334-0.849,2.05l-4.378,1.557C0.708,14.834,0.667,15.412,0.667,16s0.041,1.165,0.105,1.736l4.378,1.558c0.217,0.715,0.502,1.401,0.849,2.049l-1.994,4.193c0.725,0.909,1.549,1.733,2.459,2.458l4.192-1.993c0.648,0.347,1.334,0.633,2.05,0.851l1.557,4.377c0.571,0.064,1.148,0.104,1.737,0.104c0.588,0,1.165-0.04,1.736-0.104l1.558-4.377c0.715-0.218,1.399-0.504,2.049-0.851l4.193,1.993c0.909-0.725,1.733-1.549,2.458-2.458l-1.993-4.193c0.347-0.647,0.633-1.334,0.851-2.049L31.229,17.736zM16,20.871c-2.69,0-4.872-2.182-4.872-4.871c0-2.69,2.182-4.872,4.872-4.872c2.689,0,4.871,2.182,4.871,4.872C20.871,18.689,18.689,20.871,16,20.871z"></path><title>Link options.</title></g></g></g></g><!--z-index:74--><g   id="j_186" ><path  stroke="#707070" d="M 1408 882 L 1708 880" id="v-1986" stroke-width="2" stroke-dasharray="30 30" fill="none" style="opacity: 1;"></path><path  fill="black" stroke="black" d="M 0 0 0 0" transform="matrix(0.9999857782751336,-0.005333221116314095,0.005333221116314095,0.9999857782751336,1408,881.7999877929688)"></path><path  fill="#707070" stroke="#707070" d="M 20 0 L 0 10 L 20 20 z" id="v-1988" transform="matrix(-0.9999857782751336,0.0053332211163144155,-0.0053332211163144155,-0.9999857782751336,1708.053312064227,890.199882505182)" style="opacity: 1;"></path><path  d="M 1408 882 L 1708 880" id="v-1987" fill="none" style="cursor: default;"></path><g ><g id="v-1980"  label-idx="0" cursor="move" transform="matrix(1,0,0,1,1558,881)" style="cursor: default; opacity: 1;"><rect joint-selector="rect" id="v-1983" fill="#ffffff" rx="3" ry="3" pointer-events="none" width="156.30084228515625" height="145.91729736328125" transform="matrix(1,0,0,1,-77.8,-73)"></rect><text joint-selector="text" id="v-1982" font-size="24px" xml:space="preserve" y="0.8em" fill="#707070" text-anchor="middle" pointer-events="none" font-family="Open Sans" font-weight="normal" transform="matrix(1,0,0,1,0,-67.6)"><tspan dy="0" >Proxies</tspan><tspan dy="1.2em" x="0" >authenticated</tspan><tspan dy="1.2em" x="0" >/web/api</tspan><tspan dy="1.2em" x="0" >requests to</tspan><tspan dy="1.2em" x="0" >backend</tspan></text></g><g id="v-1981"  label-idx="1" cursor="move" transform="matrix(1,0,0,1,1548,965)" style="cursor: default; opacity: 1;"><rect joint-selector="rect" id="v-1985" fill="#ffffff" rx="3" ry="3"  width="0" height="0" transform="matrix(1,0,0,1,0,0)" display="none"></rect><text joint-selector="text" id="v-1984" fill="#000000" font-size="14" text-anchor="middle" pointer-events="none"></text></g></g><g  display="none"></g><g  id="v-1990" display="none"><g  id="v-1978"><path  end="source" d="M 26 0 L 0 13 L 26 26 z"></path></g><g  id="v-1979"><path  end="target" d="M 26 0 L 0 13 L 26 26 z"></path></g></g><g  id="v-1989" display="none"><g  id="v-1977" transform="translate(1447.9991111407394, 881.7333392590617) "><g  event="remove"><circle r="11"></circle><path transform="scale(.8) translate(-16, -16)" d="M24.778,21.419 19.276,15.917 24.777,10.415 21.949,7.585 16.447,13.087 10.945,7.585 8.117,10.415 13.618,15.917 8.116,21.419 10.946,24.248 16.447,18.746 21.948,24.248z"></path><title>Remove link.</title></g><g  event="link:options"><circle r="11" transform="translate(25)"></circle><path fill="white" transform="scale(.55) translate(29, -16)" d="M31.229,17.736c0.064-0.571,0.104-1.148,0.104-1.736s-0.04-1.166-0.104-1.737l-4.377-1.557c-0.218-0.716-0.504-1.401-0.851-2.05l1.993-4.192c-0.725-0.91-1.549-1.734-2.458-2.459l-4.193,1.994c-0.647-0.347-1.334-0.632-2.049-0.849l-1.558-4.378C17.165,0.708,16.588,0.667,16,0.667s-1.166,0.041-1.737,0.105L12.707,5.15c-0.716,0.217-1.401,0.502-2.05,0.849L6.464,4.005C5.554,4.73,4.73,5.554,4.005,6.464l1.994,4.192c-0.347,0.648-0.632,1.334-0.849,2.05l-4.378,1.557C0.708,14.834,0.667,15.412,0.667,16s0.041,1.165,0.105,1.736l4.378,1.558c0.217,0.715,0.502,1.401,0.849,2.049l-1.994,4.193c0.725,0.909,1.549,1.733,2.459,2.458l4.192-1.993c0.648,0.347,1.334,0.633,2.05,0.851l1.557,4.377c0.571,0.064,1.148,0.104,1.737,0.104c0.588,0,1.165-0.04,1.736-0.104l1.558-4.377c0.715-0.218,1.399-0.504,2.049-0.851l4.193,1.993c0.909-0.725,1.733-1.549,2.458-2.458l-1.993-4.193c0.347-0.647,0.633-1.334,0.851-2.049L31.229,17.736zM16,20.871c-2.69,0-4.872-2.182-4.872-4.871c0-2.69,2.182-4.872,4.872-4.872c2.689,0,4.871,2.182,4.871,4.872C20.871,18.689,18.689,20.871,16,20.871z"></path><title>Link options.</title></g></g></g></g><!--z-index:75--></g><g ></g><g ></g><g ></g></g></svg>